<?xml version="1.0" encoding="UTF-8"?>
<!-- Created with Inkscape (http://www.inkscape.org/) -->
<svg width="502.67" height="502.67" version="1.1" viewBox="0 0 502.67 502.67" xmlns="http://www.w3.org/2000/svg">
 <path transform="matrix(.13333 0 0 -.13333 0 502.67)" d="m66.082 1884.4c0 1004.7 814.47 1819.2 1819.2 1819.2 1004.7 0 1819.2-814.46 1819.2-1819.2 0-1004.7-814.47-1819.2-1819.2-1819.2-1004.7 0-1819.2 814.47-1819.2 1819.2" fill="#c4820e"/>
 <path transform="matrix(.13333 0 0 -.13333 0 502.67)" d="m66.082 1884.4c0 1004.7 814.47 1819.2 1819.2 1819.2 1004.7 0 1819.2-814.46 1819.2-1819.2 0-1004.7-814.47-1819.2-1819.2-1819.2-1004.7 0-1819.2 814.47-1819.2 1819.2z" fill="none" stroke="#003262" stroke-miterlimit="22.926" stroke-width="126.74"/>
 <g fill="#fff" fill-rule="evenodd">
  <path transform="matrix(.13333 0 0 -.13333 0 502.67)" d="m2258.3 235.89c7.63-7.688 18.99-11.223 30.16-8.442 5.86 1.461 10.95 4.453 14.94 8.438l-45.1 4e-3zm-120.36 0c-0.05-1.895 0.07-3.793 0.38-5.711 2.75-17.387 19.08-29.051 36.25-26.344 15.96 2.531 27.32 16.348 26.95 32.051l-63.58 4e-3zm-104.05 0c-3.27-5.782-4.79-12.586-3.94-19.563 2.14-17.48 18.06-29.707 35.31-27.59 17.47 2.145 29.95 17.867 27.81 35.344-0.53 4.281-1.87 8.27-3.86 11.809h-55.32zm-106.73 0c-6.87-6.102-11.07-15.11-10.73-24.864 0.62-17.589 15.4-31.164 32.78-30.562 17.59 0.617 31.39 15.191 30.78 32.785-0.31 9.02-4.3 17.035-10.48 22.629l-42.35 0.012zm-102.1 0c-6.98-5.77-11.5-14.418-11.67-24.028-0.31-17.601 13.75-31.929 31.13-32.23 17.6-0.313 32.15 13.519 32.45 31.121 0.18 10.094-4.29 19.18-11.45 25.156l-40.46-0.019zm-117.85 0c-3.12-4.446-5.14-9.715-5.64-15.43-1.53-17.531 11.49-32.813 28.81-34.324 17.53-1.535 33.01 11.242 34.54 28.785 0.68 7.746-1.43 15.094-5.52 21.012l-52.19-0.047zm-116.71 0c-2.45-17.196 9.4-33.063 26.41-35.762 17.39-2.758 33.72 8.926 36.48 26.309 0.5 3.203 0.53 6.363 0.11 9.417l-63 0.036zm-104.4 0c4.39-7.246 11.65-12.715 20.53-14.61 13.66-2.898 27.14 3.301 33.95 14.598l-54.48 0.012"/>
  <path transform="matrix(.13333 0 0 -.13333 0 502.67)" d="m2303.4 235.89c7.59 7.589 11.14 18.816 8.35 30.027-4.26 17.086-21.39 27.555-38.47 23.297-17.08-4.266-27.45-21.809-23.24-38.684 1.43-5.765 4.36-10.754 8.26-14.668l45.1 0.028zm-101.88 0c-0.04 1.394-0.17 2.808-0.39 4.238-2.76 17.391-18.9 29.312-36.29 26.562-15.45-2.453-26.54-15.82-26.9-30.812l63.58 0.012zm-112.3 0c-6.11 10.91-18.3 17.617-31.49 15.988-10.4-1.27-19.02-7.516-23.84-16l55.33 8e-3zm-119.71 0c-5.87 5.312-13.72 8.441-22.3 8.132-7.72-0.265-14.7-3.3-20.05-8.089l42.35-0.047zm-103.99 0c-5.33 4.464-12.16 7.187-19.67 7.312-7.88 0.137-15.14-2.637-20.79-7.305l40.46-7e-3zm-106.12 0c-5.16 7.519-13.48 12.718-23.26 13.578-11.76 1.031-22.6-4.571-28.93-13.582l52.19 8e-3zm-105.91 0c-1.84 13.488-12.22 24.777-26.41 27.015-17.39 2.762-33.79-9.347-36.5-26.519-0.03-0.16-0.06-0.324-0.08-0.485l62.99-7e-3zm-112.91 0c1.77 2.922 3.09 6.203 3.84 9.761 3.66 17.211-7.14 34.133-24.36 37.789-17.21 3.664-34.23-7.57-37.84-24.574-1.75-8.226-0.14-16.344 3.88-22.98h54.48zm816.79 56.574c-0.6-4.61-0.23-9.371 1.26-13.996 5.44-16.739 23.4-25.711 39.93-20.336 14.88 4.836 23.84 19.437 21.84 34.379l-63.03-0.047zm-983.62 0c-0.25-0.649-0.49-1.328-0.69-2.016-5.15-16.828 4.41-34.472 21.03-39.558 16.84-5.157 34.63 4.136 39.78 20.976 2.16 7.028 1.78 14.231-0.6 20.61l-59.52-0.016zm-96.74 0c2.55-2.078 5.5-3.813 8.75-5.063 11.12-4.273 23.14-1.972 31.71 5.047l-40.46 0.016"/>
  <path transform="matrix(.13333 0 0 -.13333 0 502.67)" d="m2522.9 336.52c-6.32 16.433-24.59 24.742-41.02 18.433-16.44-6.304-24.59-24.996-18.36-41.222 6.32-16.438 24.71-24.457 40.94-18.227 16.44 6.309 24.74 24.582 18.44 41.016zm102.11 46.492c-7.43 15.953-26.24 22.957-42.2 15.527-15.95-7.441-22.78-26.644-15.44-42.402 7.45-15.953 26.36-22.672 42.12-15.328 15.95 7.433 22.97 26.25 15.52 42.199zm98.74 53.051c-8.54 15.402-27.8 21.086-43.18 12.55-15.4-8.539-20.87-28.175-12.44-43.379 8.53-15.394 27.86-20.785 43.07-12.347 15.4 8.531 21.08 27.781 12.55 43.172zm95.87 60.851c-9.84 14.59-29.51 18.578-44.11 8.731-14.59-9.84-18.32-29.875-8.6-44.293 9.84-14.598 29.57-18.266 43.98-8.543 14.6 9.832 18.57 29.508 8.73 44.105zm-1795.2-48.504c9.34 14.93 4.97 34.524-9.96 43.856-14.926 9.328-34.747 4.59-43.961-10.153-9.329-14.929-4.664-34.457 10.082-43.671 14.922-9.329 34.519-4.961 43.839 9.964zm98-54.441c8.26 15.547 2.54 34.789-13 43.047-15.54 8.265-34.99 2.156-43.16-13.188-8.26-15.543-2.24-34.695 13.11-42.855 15.54-8.27 34.78-2.547 43.05 12.992zm99.97-47.629c7.45 15.965 0.72 34.875-15.23 42.312-15.96 7.438-35.06 0.325-42.4-15.433-7.44-15.953-0.44-34.762 15.33-42.11 15.95-7.437 34.87-0.722 42.3 15.231zm1197.9-53.871c-0.26 1.918-0.68 3.797-1.29 5.66-5.43 16.746-23.25 25.996-39.99 20.555-12.06-3.918-20.17-14.473-21.75-26.25l63.03 0.035zm-987.13 0c-3.33 8.898-10.58 16.18-20.37 19.18-16.14 4.929-33.28-3.797-39.15-19.172l59.52-8e-3zm-115.8 0c4.09 3.34 7.39 7.773 9.43 13.082 6.31 16.437-1.72 34.836-18.14 41.152-16.45 6.301-35-2.133-41.23-18.363-5.04-13.137-0.74-27.453 9.48-35.844l40.46-0.031zm1543.4 226.3c10.9-10.614 28.16-12.067 40.76-2.907 1.26 0.907 2.42 1.891 3.5 2.942l-44.26-0.035zm-1986.7 0c1.934-6.371 5.903-12.199 11.692-16.399 14.238-10.351 34.086-7.363 44.433 6.879 2.168 2.981 3.746 6.196 4.754 9.52h-60.879z"/>
  <path transform="matrix(.13333 0 0 -.13333 0 502.67)" d="m2995 631.93c-11.32 13.488-31.3 15.382-44.79 4.078-13.48-11.324-15.1-31.641-3.93-44.957 11.32-13.485 31.33-15.082 44.65-3.903 13.48 11.317 15.38 31.293 4.07 44.782zm81.9 78.773c-12.45 12.453-32.53 12.606-44.97 0.164-12.45-12.445-12.29-32.836 0-45.121 12.44-12.449 32.52-12.297 44.81 0 12.44 12.449 12.61 32.516 0.16 44.957zm-2320.4-62.258c12.011 12.867 11.464 32.942-1.411 44.942-12.871 12.007-33.238 11.136-45.089-1.582-12.008-12.868-11.153-32.922 1.562-44.786 12.871-12 32.938-11.457 44.941 1.422zm83.839-72.25c11.321 13.485 9.723 33.492-3.761 44.809-13.489 11.316-33.786 9.383-44.95-3.938-11.324-13.484-9.41-33.461 3.907-44.632 13.484-11.325 33.488-9.727 44.804 3.761zm2064.8-57.437c11.22 10.883 13.13 28.488 3.69 41.48-10.35 14.254-30.14 17.539-44.39 7.188-14.24-10.34-17.27-30.5-7.06-44.555 1.07-1.48 2.24-2.84 3.5-4.07l44.26-0.043zm-1970 0c3.856 12.601-0.367 26.73-11.629 34.918-14.246 10.351-34.355 7.004-44.566-7.059-6.098-8.379-7.461-18.691-4.684-27.832l60.879-0.027zm2176.2 226.29c12.07-10.289 29.55-9.899 41.14 0.043l-41.14-0.043zm-2488 0c0.961-6 3.66-11.797 8.109-16.563 12-12.879 32.059-13.742 44.938-1.726 5.406 5.043 8.691 11.511 9.797 18.269l-62.844 0.02z"/>
  <path transform="matrix(.13333 0 0 -.13333 0 502.67)" d="m3222.9 880.6c-14.05 10.593-33.95 7.957-44.54-6.114-10.6-14.054-7.61-34.211 6.27-44.675 14.06-10.594 33.92-7.649 44.38 6.238 10.6 14.058 7.96 33.957-6.11 44.551zm63.85 90.418c-14.6 9.847-34.33 6.168-44.17-8.43-9.85-14.594-5.81-34.57 8.6-44.289 14.6-9.852 34.27-5.863 44 8.551 9.84 14.59 6.16 34.328-8.43 44.168zm57.94 96.074c-15.25 8.8-34.68 3.76-43.48-11.49-8.81-15.24-3.38-34.89 11.68-43.58 15.24-8.81 34.6-3.47 43.28 11.59 8.8 15.25 3.75 34.68-11.48 43.48zm51.34 99.64c-15.83 7.71-34.85 1.32-42.57-14.5s-0.94-35.03 14.69-42.66c15.82-7.71 34.74-1.03 42.37 14.59 7.71 15.82 1.32 34.85-14.5 42.57zm44.68 102.79c-16.32 6.59-34.86-1.12-41.45-17.44-6.6-16.32 1.51-35.02 17.63-41.53 16.33-6.6 34.73 1.39 41.25 17.5 6.59 16.33-1.11 34.87-17.43 41.47zm-3078.5-81.24c16.204 6.88 23.872 25.43 16.989 41.64-6.875 16.2-25.832 23.69-41.836 16.91-16.203-6.88-23.578-25.56-16.785-41.56 6.875-16.2 25.429-23.86 41.632-16.99zm50.082-100.35c15.688 8 22.036 27.04 14.043 42.72-7.992 15.69-27.421 21.84-42.914 13.95-15.683-7.99-21.738-27.14-13.847-42.62 7.992-15.69 27.035-22.04 42.718-14.05zm55.543-95.789c15.243 8.799 20.59 28.149 11.789 43.399-8.8 15.24-28.527 20.37-43.585 11.67-15.243-8.8-20.293-28.23-11.594-43.28 8.801-15.246 28.148-20.594 43.39-11.789zm63.063-92.766c14.594 9.852 18.578 29.523 8.734 44.113-9.843 14.594-29.883 18.332-44.293 8.61-14.597-9.848-18.277-29.578-8.554-43.993 9.843-14.585 29.515-18.574 44.113-8.734zm70.473-89.141c13.679 11.082 15.933 31.024 4.855 44.711-11.078 13.672-31.363 15.657-44.875 4.715-13.68-11.082-15.625-31.058-4.684-44.566 11.079-13.684 31.024-15.942 44.704-4.86zm2551-65.179c1.17 1.039 2.28 2.136 3.32 3.324 11.54 13.285 10.3 33.32-2.99 44.875-13.29 11.547-33.32 10.305-44.87-2.984-11.55-13.286-9.97-33.614 3.15-45.012 0.08-0.078 0.17-0.149 0.25-0.215l41.14 0.012zm-2466.3 0c1.519 9.3-1.114 19.187-8.075 26.648-12.007 12.875-32.382 13.426-45.097 1.574-8.047-7.507-11.278-18.156-9.672-28.191l62.844-0.031zm-407.11 565.74c6.035-16.11 23.684-24.66 40.055-19.02 9.414 3.23 16.367 10.41 19.59 19.03l-59.645-0.01"/>
  <path transform="matrix(.13333 0 0 -.13333 0 502.67)" d="m3478.4 1373.7c-16.64 5.74-34.75-2.92-40.48-19.56-5.74-16.66 3.33-34.9 19.78-40.56 16.64-5.73 34.62 3.21 40.28 19.65 5.73 16.64-2.93 34.75-19.58 40.47zm30.37 107.96c-17 4.55-34.46-5.35-39.02-22.35-4.55-17.01 5.77-34.58 22.56-39.08 17-4.55 34.32 5.61 38.81 22.4 4.56 17.01-5.34 34.47-22.35 39.03zm22.82 111.18c-17.34 3.05-33.87-8.34-36.93-25.67s8.76-33.94 25.88-36.96c17.33-3.06 33.69 8.58 36.71 25.7 3.05 17.34-8.33 33.87-25.66 36.93zm-3276.9-87.79c17.223 3.67 28.285 20.41 24.625 37.63s-20.844 28.19-37.844 24.58c-17.222-3.66-28.019-20.58-24.406-37.58 3.66-17.22 20.41-28.28 37.625-24.63zm28.035-107.1c17.008 4.57 27.172 21.86 22.621 38.87-4.558 17-22.289 27.06-39.082 22.56-17.004-4.55-26.902-22.02-22.402-38.81 4.555-17 21.863-27.17 38.863-22.62zm55.848-87.12c2.469 6.62 2.75 14.1 0.258 21.32-5.735 16.65-24.118 25.44-40.555 19.79-16.645-5.73-25.305-23.85-19.645-40.28 0.094-0.28 0.196-0.55 0.293-0.82l59.649-0.01zm3180.9 339.44c5.04-5.87 12.17-9.98 20.35-10.99 11.05-1.35 21.41 3.14 28.06 11.01l-48.41-0.02zm-3322.7 0c-0.129-2-0.078-4.02 0.172-6.03 2.144-17.47 17.871-29.96 35.344-27.81 16.984 2.08 29.25 17.01 27.949 33.88l-63.461-0.04z"/>
  <path transform="matrix(.13333 0 0 -.13333 0 502.67)" d="m3557.1 1810.3c-17.58 1.77-33.27-10.87-35.03-28.45-1.76-17.57 11.31-33.31 28.67-35.05 17.58-1.76 33.08 11.12 34.81 28.48 1.76 17.58-10.87 33.27-28.45 35.02zm-0.13 114.56c-17.6 0-31.9-14.08-31.9-31.69 0-17.6 14.52-31.9 31.9-31.9 17.61 0 31.69 14.3 31.69 31.69 0 17.61-14.08 31.91-31.69 31.91zm-3345-86.6c17.602 0 31.907 14.07 31.907 31.68s-14.524 31.91-31.907 31.91c-17.601 0-31.683-14.3-31.683-31.68 0-17.61 14.082-31.91 31.683-31.91zm7.621-114.5c17.575 1.76 30.454 17.25 28.692 34.83-1.758 17.58-17.692 30.42-35.055 28.68-17.578-1.76-30.211-17.45-28.469-34.81 1.754-17.59 17.25-30.47 34.832-28.7zm3348.3-73.5c3.86 4.57 6.47 10.27 7.26 16.6 2.14 17.47-10.1 33.38-27.57 35.53s-33.39-10.09-35.53-27.56c-1.13-9.2 1.85-17.98 7.43-24.53l48.41-0.04zm-3307.6 0c-0.039 0.53-0.086 1.02-0.145 1.5-2.14 17.47-18.3 29.9-35.554 27.78-15.43-1.89-26.77-14.51-27.762-29.32l63.465 0.04zm3266 339.45c6.44-9.37 17.69-15.02 29.59-13.83 9.81 0.98 18.08 6.31 23.18 13.84l-52.77-0.02zm-3343 0c-0.094-0.65-0.172-1.26-0.235-1.87-1.761-17.58 10.875-33.27 28.454-35.03 17.578-1.75 33.273 10.88 35.027 28.46 0.293 2.88 0.184 5.73-0.285 8.46l-62.957-0.02z"/>
  <path transform="matrix(.13333 0 0 -.13333 0 502.67)" d="m3537.1 2146.8c-17.48-2.14-29.95-17.86-27.82-35.34 2.15-17.47 18.31-29.9 35.56-27.78 17.47 2.15 29.71 18.06 27.59 35.31-2.14 17.47-17.86 29.96-35.34 27.81zm-22.09 111.42c-17.22-3.66-28.28-20.41-24.63-37.63 3.67-17.21 20.85-28.19 37.85-24.57 17.22 3.66 28.02 20.58 24.41 37.58-3.66 17.22-20.41 28.28-37.63 24.62zm-3278.4-87.89c17.336-3.06 33.871 8.33 36.922 25.67 3.066 17.33-8.754 33.94-25.879 36.95-17.336 3.07-33.692-8.57-36.707-25.7-3.059-17.33 8.328-33.86 25.664-36.92zm-15.379-111.09c17.508-1.85 33.207 10.67 35.051 28.17 1.839 17.51-11.11 33.25-28.399 35.07-17.508 1.84-33.008-10.91-34.824-28.2-1.844-17.5 10.668-33.2 28.172-35.04zm3357.8-69.56c4.02 5.97 6.06 13.31 5.3 20.98-1.77 17.58-17.27 30.46-34.84 28.7-17.59-1.76-30.46-17.25-28.7-34.84 0.55-5.52 2.51-10.57 5.47-14.86l52.77 0.02zm-3332.8 0c-2.367 13.93-13.875 25.16-28.383 26.61-16.965 1.7-31.984-10.22-34.578-26.66l62.961 0.05zm3217.7 339.44c0.16-0.88 0.35-1.75 0.58-2.62 4.57-17.01 22.29-27.07 39.08-22.57 12.37 3.32 20.98 13.47 23.03 25.23l-62.69-0.05zm-3223.4 0c-1.59-2.6-2.825-5.43-3.645-8.49-4.562-17 5.344-34.46 22.344-39.01 17.008-4.57 34.469 5.34 39.027 22.35 2.379 8.87 0.699 17.91-3.843 25.16l-53.883-0.02z"/>
  <path transform="matrix(.13333 0 0 -.13333 0 502.67)" d="m3451.2 2471.6c-16.64-5.73-25.59-23.71-19.85-40.35 5.73-16.64 24.12-25.45 40.55-19.78 16.65 5.73 25.3 23.84 19.65 40.28-5.73 16.65-23.7 25.58-40.35 19.85zm-42.92 103.5c-16.21-6.88-23.87-25.43-16.99-41.63 6.87-16.2 25.83-23.7 41.84-16.91 16.2 6.88 23.57 25.56 16.79 41.56-6.89 16.2-25.43 23.86-41.64 16.98zm-3037.1 21.63c15.82-7.71 34.848-1.33 42.566 14.5 7.719 15.83 0.934 35.05-14.695 42.66-15.82 7.73-34.746 1.03-42.367-14.59-7.719-15.82-1.332-34.84 14.492-42.57zm-44.379-102.89c16.324-6.59 34.863 1.1 41.453 17.42 6.598 16.33-1.512 35.04-17.629 41.55-16.324 6.59-34.734-1.4-41.25-17.52-6.59-16.32 1.11-34.85 17.426-41.45zm-37.395-105.69c16.747-5.44 34.696 3.53 40.137 20.27 5.442 16.75-3.953 34.84-20.484 40.21-16.746 5.43-34.559-3.82-39.926-20.35-5.445-16.74 3.531-34.7 20.273-40.13zm3237.3-59.02c0.76 4.44 0.6 9.06-0.63 13.62-4.55 17.01-21.85 27.18-38.86 22.62-16.13-4.32-26.12-20.12-23.2-36.26l62.69 0.02zm-3232.2 0c-4.153 6.64-10.704 11.77-18.723 13.92-13.91 3.73-28.024-2.4-35.16-13.95l53.883 0.03zm3054.8 339.43c-8.62-9.47-11-23.59-4.83-35.7 7.99-15.69 27.42-21.84 42.91-13.94 15.69 7.98 21.74 27.12 13.85 42.62-1.33 2.6-2.97 4.96-4.84 7.04l-47.09-0.02z"/>
  <path transform="matrix(.13333 0 0 -.13333 0 502.67)" d="m3303 2771.5c-15.24-8.79-20.59-28.14-11.79-43.39 8.81-15.25 28.54-20.37 43.59-11.67 15.25 8.79 20.3 28.22 11.6 43.28-8.8 15.25-28.14 20.59-43.4 11.78zm-62.78 92.86c-14.6-9.84-18.58-29.52-8.74-44.11 9.85-14.59 29.89-18.33 44.3-8.61 14.59 9.85 18.26 29.58 8.55 43.99-9.84 14.59-29.52 18.58-44.11 8.73zm-70.32 89.28c-13.68-11.08-15.93-31.02-4.85-44.7 11.08-13.69 31.36-15.67 44.87-4.73 13.69 11.09 15.63 31.06 4.69 44.58-11.08 13.68-31.02 15.93-44.71 4.85zm-74.66 83.65c-12.87-12.01-13.72-32.06-1.73-44.93 12.02-12.88 32.39-13.43 45.1-1.58 12.88 12.01 13.42 32.07 1.57 44.78-12.01 12.88-32.06 13.74-44.94 1.73zm-2405.9 16.24c12.45-12.44 32.516-12.61 44.969-0.15 12.445 12.44 12.289 32.82 0 45.12-12.453 12.45-32.519 12.29-44.812 0-12.446-12.45-12.602-32.52-0.157-44.97zm-75.656-82.78c13.285-11.55 33.316-10.3 44.867 2.98 11.551 13.29 9.973 33.61-3.152 45.01-13.277 11.55-33.293 10-44.699-3.13-11.547-13.28-10.305-33.32 2.984-44.86zm-69.992-87.5c14.058-10.59 33.961-7.95 44.551 6.11 10.593 14.06 7.601 34.22-6.282 44.68-14.05 10.59-33.914 7.65-44.375-6.24-10.589-14.05-7.953-33.94 6.106-44.55zm-63.692-90.53c14.594-9.83 34.332-6.17 44.172 8.43 9.844 14.6 5.801 34.57-8.609 44.3-14.594 9.84-34.266 5.85-43.988-8.56-9.844-14.59-6.168-34.32 8.429-44.17zm-57.668-96.18c15.247-8.81 34.672-3.76 43.477 11.49 8.805 15.24 3.379 34.88-11.676 43.58-15.246 8.8-34.597 3.45-43.289-11.6-8.801-15.25-3.758-34.67 11.488-43.47zm2974-27.99c-9.39 10.37-24.8 13.68-37.87 7.02-3.58-1.82-6.67-4.21-9.21-7.02h47.08zm-368.92 452.59c-3.38-1.57-6.54-3.71-9.34-6.5-12.44-12.45-12.6-32.52-0.14-44.97 12.44-12.44 32.83-12.29 45.12 0 12.45 12.45 12.29 32.52 0 44.81-2.86 2.88-6.14 5.08-9.63 6.65l-26.01 0.01"/>
  <path transform="matrix(.13333 0 0 -.13333 0 502.67)" d="m2931.6 3188.2c-11.32-13.49-9.72-33.49 3.77-44.81 13.48-11.32 33.78-9.39 44.95 3.93 11.31 13.49 9.41 33.47-3.91 44.64-13.48 11.32-33.49 9.73-44.81-3.76zm-89.85 67.18c-10.35-14.23-7.36-34.08 6.88-44.44 14.24-10.34 34.35-7 44.57 7.07 10.35 14.24 7.05 34.04-7.01 44.26-14.25 10.34-34.09 7.36-44.44-6.89zm-1986.2-53.59c10.84-13.87 30.742-16.47 44.617-5.64 13.875 10.84 16.199 31.09 5.5 44.79-10.84 13.88-30.785 16.17-44.48 5.47-13.872-10.84-16.473-30.75-5.637-44.62zm-84.449-69.33c11.312-13.48 31.296-15.39 44.781-4.07 13.488 11.32 15.105 31.64 3.933 44.95-11.316 13.49-31.328 15.08-44.636 3.91-13.492-11.32-15.395-31.3-4.078-44.79zm2282.4-11.34c-8.27 3.68-17.77 3.69-26.02-0.04l26.02 0.04zm-309.44 169.73c2.04-7.3 6.71-13.9 13.68-18.26 14.93-9.32 34.75-4.59 43.97 10.16 1.61 2.57 2.8 5.27 3.59 8.05l-61.24 0.05zm-1802.8 0c-1.34-7.71 0.191-15.95 4.945-22.99 9.844-14.6 29.516-18.58 44.11-8.74 10.662 7.19 15.522 19.81 13.592 31.71l-62.643 0.02z"/>
  <path transform="matrix(.13333 0 0 -.13333 0 502.67)" d="m2649.8 3371.1c-8.26-15.55-2.54-34.79 13.01-43.05 15.53-8.27 34.98-2.16 43.15 13.19 8.26 15.54 2.25 34.7-13.11 42.85-15.54 8.27-34.78 2.55-43.05-12.99zm-99.89 47.79c-7.44-15.95-0.71-34.87 15.24-42.31s35.05-0.32 42.4 15.43c7.44 15.96 0.43 34.77-15.32 42.11-15.96 7.45-34.88 0.73-42.32-15.23zm-104.33 41.05c-6.3-16.43 1.71-34.84 18.15-41.14 16.44-6.31 34.99 2.12 41.22 18.35 6.31 16.43-2 34.7-18.22 40.94-16.44 6.31-34.84-1.72-41.15-18.15zm-106.88 33.96c-5.14-16.84 4.14-34.64 20.98-39.78 16.84-5.15 34.75 4.56 39.84 21.19 5.14 16.83-4.41 34.48-21.04 39.56-16.84 5.15-34.64-4.14-39.78-20.97zm-110.44 26.48c-3.67-17.22 7.14-34.13 24.35-37.8 17.23-3.65 34.23 7.58 37.85 24.58 3.65 17.21-7.4 33.97-24.41 37.58-17.21 3.67-34.14-7.14-37.79-24.36zm-109.07 19.37c-2.75-17.39 8.93-33.72 26.31-36.48 17.39-2.75 33.79 9.36 36.51 26.53 2.74 17.38-9.17 33.54-26.35 36.25-17.39 2.76-33.71-8.91-36.47-26.3zm-111.4 11.84c-1.54-17.54 11.25-33.01 28.78-34.55 17.55-1.53 33.06 11.69 34.58 29.01 1.53 17.54-11.5 32.81-28.81 34.33-17.53 1.53-33.01-11.26-34.55-28.79zm-110.59 4.96c-0.62-17.59 12.96-32.38 30.56-32.99 17.59-0.62 32.39 13.4 32.99 30.77 0.62 17.59-13.18 32.17-30.56 32.77-17.59 0.61-32.38-12.95-32.99-30.56zm-112.12-3.09c0.62-17.6 15.19-31.39 32.79-30.78 17.59 0.61 31.37 15.63 30.77 33-0.61 17.59-15.4 31.16-32.78 30.56-17.58-0.61-31.39-15.19-30.78-32.78zm-113.09-11.07c2.14-17.48 17.87-29.96 35.34-27.8 17.47 2.14 29.91 18.3 27.78 35.55-2.14 17.47-18.05 29.71-35.32 27.59-17.46-2.15-29.94-17.87-27.8-35.34zm-108-16.39c2.75-17.39 18.9-29.32 36.29-26.56 17.39 2.75 29.24 19.33 26.52 36.5-2.75 17.4-19.08 29.06-36.24 26.34-17.4-2.75-29.32-18.89-26.57-36.28zm-110.56-26.06c4.26-17.08 21.39-27.55 38.47-23.3 17.07 4.26 27.44 21.81 23.23 38.68-4.25 17.08-21.54 27.29-38.4 23.08-17.09-4.26-27.55-21.39-23.3-38.46zm-107.29-32.4c5.44-16.74 23.26-26 40-20.55 16.74 5.43 25.85 23.67 20.49 40.2-5.45 16.74-23.41 25.72-39.94 20.35-16.74-5.44-25.99-23.26-20.55-40zm-103.76-38.57c6.31-16.43 24.58-24.74 41.02-18.44 16.43 6.32 24.57 25 18.34 41.23-6.31 16.43-24.71 24.46-40.93 18.23-16.44-6.31-24.74-24.58-18.43-41.02zm-102.02-46.72c7.44-15.95 26.24-22.96 42.21-15.52 15.94 7.44 22.77 26.65 15.43 42.41-7.44 15.96-26.36 22.67-42.11 15.32-15.96-7.44-22.97-26.24-15.53-42.21zm-98.6-53.33c8.54-15.4 27.79-21.08 43.18-12.54 15.4 8.53 20.87 28.16 12.44 43.37-8.53 15.39-27.87 20.78-43.07 12.35-15.4-8.53-21.08-27.78-12.55-43.18zm1763.4-38.09c3.83 13.25-1.47 27.93-13.67 35.56-14.93 9.32-34.53 4.95-43.85-9.97-4.97-7.95-6.05-17.23-3.73-25.57l61.25-0.02zm-1801.4 0c-0.71 4.38-2.35 8.68-4.987 12.57-9.844 14.59-29.57 18.27-43.984 8.55-7.539-5.09-12.246-12.8-13.676-21.08l62.647-0.04"/>
 </g>
 <path transform="matrix(.13333 0 0 -.13333 0 502.67)" d="m1980 213.25c-0.62 17.594-15.19 31.391-32.78 30.773-17.6-0.613-31.39-15.621-30.79-32.996 0.63-17.593 15.41-31.164 32.78-30.566 17.6 0.617 31.39 15.191 30.79 32.789zm113.08 10.832c-2.15 17.469-17.87 29.949-35.35 27.797-17.47-2.133-29.89-18.301-27.77-35.551 2.14-17.48 18.06-29.707 35.31-27.59 17.47 2.145 29.95 17.867 27.81 35.344zm108.06 16.047c-2.76 17.391-18.9 29.312-36.29 26.562-17.38-2.757-29.24-19.332-26.52-36.511 2.75-17.383 19.08-29.051 36.25-26.344 17.39 2.758 29.32 18.902 26.56 36.293zm110.62 25.789c-4.26 17.086-21.39 27.555-38.47 23.297-17.08-4.266-27.45-21.809-23.24-38.684 4.26-17.078 21.54-27.281 38.42-23.082 17.07 4.266 27.55 21.395 23.29 38.469v0zm107.36 32.207c-5.43 16.746-23.25 25.996-39.99 20.555-16.73-5.446-25.85-23.676-20.49-40.211 5.44-16.739 23.4-25.711 39.93-20.336 16.75 5.437 26 23.25 20.55 39.992v0zm103.84 38.391c-6.32 16.433-24.59 24.742-41.02 18.433-16.44-6.304-24.59-24.996-18.36-41.222 6.32-16.438 24.71-24.457 40.94-18.227 16.44 6.309 24.74 24.582 18.44 41.016zm102.11 46.492c-7.43 15.953-26.24 22.957-42.2 15.527-15.95-7.441-22.78-26.644-15.44-42.402 7.45-15.953 26.36-22.672 42.12-15.328 15.95 7.433 22.97 26.25 15.52 42.199v0zm98.74 53.051c-8.54 15.402-27.8 21.086-43.18 12.55-15.4-8.539-20.87-28.175-12.44-43.379 8.53-15.394 27.86-20.785 43.07-12.347 15.4 8.531 21.08 27.781 12.55 43.172v0zm95.87 60.851c-9.84 14.59-29.51 18.578-44.11 8.731-14.59-9.84-18.32-29.875-8.6-44.293 9.84-14.598 29.57-18.266 43.98-8.543 14.6 9.832 18.57 29.508 8.73 44.105zm89.11 63.332c-10.35 14.25-30.14 17.539-44.39 7.184-14.24-10.34-17.27-30.496-7.06-44.555 10.35-14.254 30.2-17.238 44.26-7.016 14.24 10.344 17.53 30.145 7.19 44.387v0zm86.19 71.692c-11.32 13.488-31.3 15.382-44.79 4.078-13.48-11.324-15.1-31.641-3.93-44.957 11.32-13.485 31.33-15.082 44.65-3.903 13.48 11.317 15.38 31.293 4.07 44.782zm81.9 78.773c-12.45 12.453-32.53 12.606-44.97 0.164-12.45-12.445-12.29-32.836 0-45.121 12.44-12.449 32.52-12.297 44.81 0 12.44 12.449 12.61 32.516 0.16 44.957zm75.81 82.551c-13.29 11.547-33.32 10.301-44.87-2.985-11.55-13.289-9.97-33.613 3.15-45.011 13.28-11.559 33.29-9.992 44.71 3.117 11.54 13.289 10.3 33.324-2.99 44.879zm70.22 87.34c-14.05 10.593-33.95 7.957-44.54-6.114-10.6-14.054-7.61-34.211 6.27-44.675 14.06-10.594 33.92-7.649 44.38 6.238 10.6 14.058 7.96 33.957-6.11 44.551zm63.85 90.418c-14.6 9.847-34.33 6.168-44.17-8.43-9.85-14.594-5.81-34.57 8.6-44.289 14.6-9.852 34.27-5.863 44 8.551 9.84 14.59 6.16 34.328-8.43 44.168v0zm57.94 96.074c-15.25 8.8-34.68 3.76-43.48-11.49-8.81-15.24-3.38-34.89 11.68-43.58 15.24-8.81 34.6-3.47 43.28 11.59 8.8 15.25 3.75 34.68-11.48 43.48v0zm51.34 99.64c-15.83 7.71-34.85 1.32-42.57-14.5s-0.94-35.03 14.69-42.66c15.82-7.71 34.74-1.03 42.37 14.59 7.71 15.82 1.32 34.85-14.5 42.57v0zm44.68 102.79c-16.32 6.59-34.86-1.12-41.45-17.44-6.6-16.32 1.51-35.02 17.63-41.53 16.33-6.6 34.73 1.39 41.25 17.5 6.59 16.33-1.11 34.87-17.43 41.47v0zm37.66 104.14c-16.64 5.74-34.75-2.92-40.48-19.56-5.74-16.66 3.33-34.9 19.78-40.56 16.64-5.73 34.62 3.21 40.28 19.65 5.73 16.64-2.93 34.75-19.58 40.47zm30.37 107.96c-17 4.55-34.46-5.35-39.02-22.35-4.55-17.01 5.77-34.58 22.56-39.08 17-4.55 34.32 5.61 38.81 22.4 4.56 17.01-5.34 34.47-22.35 39.03v0zm22.82 111.18c-17.34 3.05-33.87-8.34-36.93-25.67s8.76-33.94 25.88-36.96c17.33-3.06 33.69 8.58 36.71 25.7 3.05 17.34-8.33 33.87-25.66 36.93v0zm16.04 109.56c-17.47 2.15-33.39-10.09-35.53-27.56-2.15-17.47 10.52-33.44 27.78-35.56 17.47-2.15 33.2 10.34 35.31 27.59 2.15 17.47-10.09 33.38-27.56 35.53v0zm9.54 107.91c-17.58 1.77-33.27-10.87-35.03-28.45-1.76-17.57 11.31-33.31 28.67-35.05 17.58-1.76 33.08 11.12 34.81 28.48 1.76 17.58-10.87 33.27-28.45 35.02zm-0.13 114.56c-17.6 0-31.9-14.08-31.9-31.69 0-17.6 14.52-31.9 31.9-31.9 17.61 0 31.69 14.3 31.69 31.69 0 17.61-14.08 31.91-31.69 31.91v0zm-7.48 114.53c-17.59-1.76-30.46-17.25-28.7-34.84 1.77-17.58 17.7-30.41 35.06-28.67 17.58 1.76 30.21 17.45 28.48 34.81-1.77 17.58-17.27 30.45-34.84 28.7v0zm-12.39 107.44c-17.48-2.14-29.95-17.86-27.82-35.34 2.15-17.47 18.31-29.9 35.56-27.78 17.47 2.15 29.71 18.06 27.59 35.31-2.14 17.47-17.86 29.96-35.34 27.81v0zm-22.09 111.42c-17.22-3.66-28.28-20.41-24.63-37.63 3.67-17.21 20.85-28.19 37.85-24.57 17.22 3.66 28.02 20.58 24.41 37.58-3.66 17.22-20.41 28.28-37.63 24.62zm-27.85 107.14c-17-4.56-27.17-21.86-22.62-38.86 4.57-17.01 22.29-27.07 39.07-22.57 17.02 4.56 26.91 22.02 22.41 38.81-4.55 17.01-21.85 27.18-38.86 22.62v0zm-35.98 106.23c-16.64-5.73-25.59-23.71-19.85-40.35 5.73-16.64 24.12-25.45 40.55-19.78 16.65 5.73 25.3 23.84 19.65 40.28-5.73 16.65-23.7 25.58-40.35 19.85v0zm-42.92 103.5c-16.21-6.88-23.87-25.43-16.99-41.63 6.87-16.2 25.83-23.7 41.84-16.91 16.2 6.88 23.57 25.56 16.79 41.56-6.89 16.2-25.43 23.86-41.64 16.98v0zm-49.83 100.47c-15.69-7.99-22.04-27.02-14.04-42.71 7.99-15.69 27.42-21.84 42.91-13.94 15.69 7.98 21.74 27.12 13.85 42.62-7.99 15.67-27.04 22.03-42.72 14.03v0zm-55.43 95.94c-15.24-8.79-20.59-28.14-11.79-43.39 8.81-15.25 28.54-20.37 43.59-11.67 15.25 8.79 20.3 28.22 11.6 43.28-8.8 15.25-28.14 20.59-43.4 11.78zm-62.78 92.86c-14.6-9.84-18.58-29.52-8.74-44.11 9.85-14.59 29.89-18.33 44.3-8.61 14.59 9.85 18.26 29.58 8.55 43.99-9.84 14.59-29.52 18.58-44.11 8.73zm-70.32 89.28c-13.68-11.08-15.93-31.02-4.85-44.7 11.08-13.69 31.36-15.67 44.87-4.73 13.69 11.09 15.63 31.06 4.69 44.58-11.08 13.68-31.02 15.93-44.71 4.85zm-74.66 83.65c-12.87-12.01-13.72-32.06-1.73-44.93 12.02-12.88 32.39-13.43 45.1-1.58 12.88 12.01 13.42 32.07 1.57 44.78-12.01 12.88-32.06 13.74-44.94 1.73v0zm-77.2 77.35c-12.43-12.44-12.6-32.51-0.14-44.97 12.45-12.44 32.83-12.29 45.12 0 12.45 12.46 12.29 32.53 0 44.81-12.45 12.45-32.52 12.61-44.97 0.16v0zm-86.48 73.58c-11.32-13.49-9.72-33.49 3.77-44.81 13.48-11.32 33.78-9.39 44.95 3.93 11.31 13.49 9.41 33.47-3.91 44.64-13.48 11.32-33.49 9.73-44.81-3.76v0zm-89.85 67.18c-10.35-14.23-7.36-34.08 6.88-44.44 14.24-10.34 34.35-7 44.57 7.07 10.35 14.24 7.05 34.04-7.01 44.26-14.25 10.34-34.09 7.36-44.44-6.89zm-94.04 61.06c-9.33-14.92-4.97-34.52 9.96-43.85 14.93-9.32 34.75-4.59 43.97 10.16 9.32 14.93 4.66 34.44-10.08 43.66-14.93 9.32-34.52 4.95-43.85-9.97v0zm-97.85 54.68c-8.26-15.55-2.54-34.79 13.01-43.05 15.53-8.27 34.98-2.16 43.15 13.19 8.26 15.54 2.25 34.7-13.11 42.85-15.54 8.27-34.78 2.55-43.05-12.99zm-99.89 47.79c-7.44-15.95-0.71-34.87 15.24-42.31s35.05-0.32 42.4 15.43c7.44 15.96 0.43 34.77-15.32 42.11-15.96 7.45-34.88 0.73-42.32-15.23zm-104.33 41.05c-6.3-16.43 1.71-34.84 18.15-41.14 16.44-6.31 34.99 2.12 41.22 18.35 6.31 16.43-2 34.7-18.22 40.94-16.44 6.31-34.84-1.72-41.15-18.15zm-106.88 33.96c-5.14-16.84 4.14-34.64 20.98-39.78 16.84-5.15 34.75 4.56 39.84 21.19 5.14 16.83-4.41 34.48-21.04 39.56-16.84 5.15-34.64-4.14-39.78-20.97v0zm-110.44 26.48c-3.67-17.22 7.14-34.13 24.35-37.8 17.23-3.65 34.23 7.58 37.85 24.58 3.65 17.21-7.4 33.97-24.41 37.58-17.21 3.67-34.14-7.14-37.79-24.36zm-109.07 19.37c-2.75-17.39 8.93-33.72 26.31-36.48 17.39-2.75 33.79 9.36 36.51 26.53 2.74 17.38-9.17 33.54-26.35 36.25-17.39 2.76-33.71-8.91-36.47-26.3v0zm-111.4 11.84c-1.54-17.54 11.25-33.01 28.78-34.55 17.55-1.53 33.06 11.69 34.58 29.01 1.53 17.54-11.5 32.81-28.81 34.33-17.53 1.53-33.01-11.26-34.55-28.79v0zm-110.59 4.96c-0.62-17.59 12.96-32.38 30.56-32.99 17.59-0.62 32.39 13.4 32.99 30.77 0.62 17.59-13.18 32.17-30.56 32.77-17.59 0.61-32.38-12.95-32.99-30.56v0zm-112.12-3.09c0.62-17.6 15.19-31.39 32.79-30.78 17.59 0.61 31.37 15.63 30.77 33-0.61 17.59-15.4 31.16-32.78 30.56-17.58-0.61-31.39-15.19-30.78-32.78zm-113.09-11.07c2.14-17.48 17.87-29.96 35.34-27.8 17.47 2.14 29.91 18.3 27.78 35.55-2.14 17.47-18.05 29.71-35.32 27.59-17.46-2.15-29.94-17.87-27.8-35.34zm-108-16.39c2.75-17.39 18.9-29.32 36.29-26.56 17.39 2.75 29.24 19.33 26.52 36.5-2.75 17.4-19.08 29.06-36.24 26.34-17.4-2.75-29.32-18.89-26.57-36.28v0zm-110.56-26.06c4.26-17.08 21.39-27.55 38.47-23.3 17.07 4.26 27.44 21.81 23.23 38.68-4.25 17.08-21.54 27.29-38.4 23.08-17.09-4.26-27.55-21.39-23.3-38.46v0zm-107.29-32.4c5.44-16.74 23.26-26 40-20.55 16.74 5.43 25.85 23.67 20.49 40.2-5.45 16.74-23.41 25.72-39.94 20.35-16.74-5.44-25.99-23.26-20.55-40zm-103.76-38.57c6.31-16.43 24.58-24.74 41.02-18.44 16.43 6.32 24.57 25 18.34 41.23-6.31 16.43-24.71 24.46-40.93 18.23-16.44-6.31-24.74-24.58-18.43-41.02v0zm-102.02-46.72c7.44-15.95 26.24-22.96 42.21-15.52 15.94 7.44 22.77 26.65 15.43 42.41-7.44 15.96-26.36 22.67-42.11 15.32-15.96-7.44-22.97-26.24-15.53-42.21zm-98.6-53.33c8.54-15.4 27.79-21.08 43.18-12.54 15.4 8.53 20.87 28.16 12.44 43.37-8.53 15.39-27.87 20.78-43.07 12.35-15.4-8.53-21.08-27.78-12.55-43.18v0zm-95.736-61.08c9.844-14.6 29.516-18.58 44.114-8.74 14.592 9.84 18.332 29.88 8.605 44.3-9.844 14.59-29.57 18.27-43.984 8.55-14.598-9.85-18.579-29.52-8.735-44.11zm-90.566-66.07c10.84-13.87 30.742-16.47 44.617-5.64 13.875 10.84 16.199 31.09 5.5 44.79-10.84 13.88-30.785 16.17-44.48 5.47-13.872-10.84-16.473-30.75-5.637-44.62zm-84.449-69.33c11.312-13.48 31.296-15.39 44.781-4.07 13.488 11.32 15.105 31.64 3.933 44.95-11.316 13.49-31.328 15.08-44.636 3.91-13.492-11.32-15.395-31.3-4.078-44.79zm-81.696-78.95c12.45-12.44 32.516-12.61 44.969-0.15 12.445 12.44 12.289 32.82 0 45.12-12.453 12.45-32.519 12.29-44.812 0-12.446-12.45-12.602-32.52-0.157-44.97zm-75.656-82.78c13.285-11.55 33.316-10.3 44.867 2.98 11.551 13.29 9.973 33.61-3.152 45.01-13.277 11.55-33.293 10-44.699-3.13-11.547-13.28-10.305-33.32 2.984-44.86v0zm-69.992-87.5c14.058-10.59 33.961-7.95 44.551 6.11 10.593 14.06 7.601 34.22-6.282 44.68-14.05 10.59-33.914 7.65-44.375-6.24-10.589-14.05-7.953-33.94 6.106-44.55zm-63.692-90.53c14.594-9.83 34.332-6.17 44.172 8.43 9.844 14.6 5.801 34.57-8.609 44.3-14.594 9.84-34.266 5.85-43.988-8.56-9.844-14.59-6.168-34.32 8.429-44.17v0zm-57.668-96.18c15.247-8.81 34.672-3.76 43.477 11.49 8.805 15.24 3.379 34.88-11.676 43.58-15.246 8.8-34.597 3.45-43.289-11.6-8.801-15.25-3.758-34.67 11.488-43.47v0zm-51.183-99.82c15.82-7.71 34.848-1.33 42.566 14.5 7.719 15.83 0.934 35.05-14.695 42.66-15.82 7.73-34.746 1.03-42.367-14.59-7.719-15.82-1.332-34.84 14.492-42.57v0zm-44.379-102.89c16.324-6.59 34.863 1.1 41.453 17.42 6.598 16.33-1.512 35.04-17.629 41.55-16.324 6.59-34.734-1.4-41.25-17.52-6.59-16.32 1.11-34.85 17.426-41.45zm-37.395-105.69c16.747-5.44 34.696 3.53 40.137 20.27 5.442 16.75-3.953 34.84-20.484 40.21-16.746 5.43-34.559-3.82-39.926-20.35-5.445-16.74 3.531-34.7 20.273-40.13zm-30.144-106.52c17.008-4.57 34.469 5.34 39.027 22.35 4.551 16.99-5.773 34.57-22.566 39.07-17.004 4.55-34.305-5.61-38.805-22.41-4.562-17 5.344-34.46 22.344-39.01zm-22.574-111.29c17.336-3.06 33.871 8.33 36.922 25.67 3.066 17.33-8.754 33.94-25.879 36.95-17.336 3.07-33.692-8.57-36.707-25.7-3.059-17.33 8.328-33.86 25.664-36.92zm-15.379-111.09c17.508-1.85 33.207 10.67 35.051 28.17 1.839 17.51-11.11 33.25-28.399 35.07-17.508 1.84-33.008-10.91-34.824-28.2-1.844-17.5 10.668-33.2 28.172-35.04zm-9.742-106.46c17.578-1.75 33.273 10.88 35.027 28.46 1.762 17.58-11.313 33.31-28.672 35.05-17.574 1.76-33.074-11.11-34.809-28.47-1.761-17.59 10.875-33.28 28.454-35.04v0zm0.429-114.55c17.602 0 31.907 14.07 31.907 31.68s-14.524 31.91-31.907 31.91c-17.601 0-31.683-14.3-31.683-31.68 0-17.61 14.082-31.91 31.683-31.91zm7.621-114.5c17.575 1.76 30.454 17.25 28.692 34.83-1.758 17.58-17.692 30.42-35.055 28.68-17.578-1.76-30.211-17.45-28.469-34.81 1.754-17.59 17.25-30.47 34.832-28.7zm12.7-107.34c17.468 2.15 29.945 17.87 27.804 35.34-2.144 17.47-18.304 29.9-35.558 27.78-17.469-2.14-29.703-18.06-27.59-35.31 2.144-17.47 17.871-29.96 35.344-27.81v0zm22.359-111.38c17.223 3.67 28.285 20.41 24.625 37.63s-20.844 28.19-37.844 24.58c-17.222-3.66-28.019-20.58-24.406-37.58 3.66-17.22 20.41-28.28 37.625-24.63zm28.035-107.1c17.008 4.57 27.172 21.86 22.621 38.87-4.558 17-22.289 27.06-39.082 22.56-17.004-4.55-26.902-22.02-22.402-38.81 4.555-17 21.863-27.17 38.863-22.62zm36.258-106.14c16.644 5.73 25.582 23.7 19.848 40.34-5.731 16.65-24.118 25.44-40.551 19.79-16.649-5.73-25.309-23.85-19.649-40.28 5.731-16.65 23.704-25.58 40.352-19.85v0zm43.23-103.49c16.204 6.88 23.872 25.43 16.989 41.64-6.875 16.2-25.832 23.69-41.836 16.91-16.203-6.88-23.578-25.56-16.785-41.56 6.875-16.2 25.429-23.86 41.632-16.99zm50.082-100.35c15.688 8 22.036 27.04 14.043 42.72-7.992 15.69-27.421 21.84-42.914 13.95-15.683-7.99-21.738-27.14-13.847-42.62 7.992-15.69 27.035-22.04 42.718-14.05zm55.543-95.789c15.243 8.799 20.59 28.149 11.789 43.399-8.8 15.24-28.527 20.37-43.585 11.67-15.243-8.8-20.293-28.23-11.594-43.28 8.801-15.246 28.148-20.594 43.39-11.789v0zm63.063-92.766c14.594 9.852 18.578 29.523 8.734 44.113-9.843 14.594-29.883 18.332-44.293 8.61-14.597-9.848-18.277-29.578-8.554-43.993 9.843-14.585 29.515-18.574 44.113-8.734v0zm70.473-89.141c13.679 11.082 15.933 31.024 4.855 44.711-11.078 13.672-31.363 15.657-44.875 4.715-13.68-11.082-15.625-31.058-4.684-44.566 11.079-13.684 31.024-15.942 44.704-4.86zm74.867-83.468c12.879 12.004 13.73 32.058 1.722 44.937-12.007 12.879-32.382 13.43-45.097 1.578-12.875-12.008-13.418-32.07-1.563-44.785 12-12.879 32.059-13.738 44.938-1.726v0zm80.219-78.317c12.011 12.867 11.464 32.942-1.411 44.942-12.871 12.007-33.238 11.136-45.089-1.582-12.008-12.868-11.153-32.922 1.562-44.786 12.871-12 32.938-11.457 44.941 1.422v0zm83.839-72.25c11.321 13.485 9.723 33.492-3.761 44.809-13.489 11.316-33.786 9.383-44.95-3.938-11.324-13.484-9.41-33.461 3.907-44.632 13.484-11.325 33.488-9.727 44.804 3.761v0zm90.004-66.957c10.352 14.242 7.364 34.094-6.879 44.438-14.242 10.351-34.351 7.004-44.566-7.059-10.348-14.238-7.059-34.039 7.012-44.258 14.238-10.351 34.086-7.363 44.433 6.879zm94.199-60.836c9.34 14.93 4.97 34.524-9.96 43.856-14.926 9.328-34.747 4.59-43.961-10.153-9.329-14.929-4.664-34.457 10.082-43.671 14.922-9.329 34.519-4.961 43.839 9.964v0zm98-54.441c8.26 15.547 2.54 34.789-13 43.047-15.54 8.265-34.99 2.156-43.16-13.188-8.26-15.543-2.24-34.695 13.11-42.855 15.54-8.27 34.78-2.547 43.05 12.992v0zm99.97-47.629c7.45 15.965 0.72 34.875-15.23 42.312-15.96 7.438-35.06 0.325-42.4-15.433-7.44-15.953-0.44-34.762 15.33-42.11 15.95-7.437 34.87-0.722 42.3 15.231v0zm104.44-40.785c6.31 16.433-1.72 34.836-18.15 41.148-16.44 6.301-34.99-2.129-41.22-18.359-6.31-16.434 2-34.707 18.23-40.938 16.43-6.316 34.83 1.711 41.14 18.149v0zm106.97-33.684c5.15 16.824-4.14 34.625-20.97 39.781-16.84 5.137-34.76-4.57-39.84-21.195-5.15-16.828 4.41-34.476 21.03-39.558 16.84-5.157 34.63 4.136 39.78 20.972v0zm110.55-26.215c3.66 17.211-7.14 34.133-24.36 37.789-17.21 3.664-34.23-7.57-37.84-24.574-3.66-17.222 7.4-33.965 24.41-37.59 17.22-3.652 34.13 7.145 37.79 24.371v0zm108.96-19.214c2.76 17.39-8.92 33.71-26.3 36.468-17.39 2.762-33.79-9.347-36.5-26.519-2.76-17.391 9.16-33.532 26.33-36.254 17.39-2.758 33.72 8.926 36.47 26.305v0zm111.54-11.512c1.54 17.531-11.25 33.012-28.78 34.543-17.54 1.527-33.05-11.688-34.57-29.008-1.53-17.527 11.49-32.813 28.81-34.324 17.53-1.532 33.01 11.242 34.54 28.789zm112.05-4.176c0.32 17.605-13.52 32.148-31.12 32.453-17.6 0.313-32.16-13.969-32.46-31.344-0.31-17.601 13.75-31.925 31.13-32.23 17.6-0.313 32.15 13.523 32.45 31.121z" fill="none" stroke="#fff" stroke-linecap="round" stroke-miterlimit="22.926" stroke-width="5.2814"/>
 <g fill="#003262">
  <path transform="matrix(.13333 0 0 -.13333 0 502.67)" d="m2310 716.85c-12.37 28.285-30.05 30.054-24.75 68.949-18.56 4.418-96.54 6.746-121.98-1.77-79.09-26.449-112.29-47.734-187.4-47.734-56.57 0-98.05-6.023-153.81 3.539-61.88 10.606-181.89 36.27-212.15 44.199-32.71 4.418-76.47-18.125-129.94-1.769-10.61-60.992-26.52-87.512-51.27-108.73-66.3-82.207-88.4-122.87-53.93-161.76 31.48-35.516 88.4-22.985 148.51-31.825 62.22-9.148 103.69-17.082 144.97-30.054 51.66-16.235 144.22-36.778 213.92-33.59 71.33 3.262 160.88 31.82 160.88 31.82 54.81 19.449 93.7 15.91 144.97 15.91 34.22 0 111.66 9.887 150.27 30.059 98.12 51.269 0 164.42-28.29 222.76z"/>
  <path transform="matrix(.13333 0 0 -.13333 0 502.67)" d="m1553.3 872.42c0 22.098-31.82 14.144-45.96 14.144-31.39 0-68.07 16.797-81.33 32.707-16.93 20.301-31.82 66.297-60.11 45.082-41.77-31.324 39-48.531 38.02-84.859-0.89-32.707-45.01-71.668-54.81-101.66-15.03-45.965-58.34-155.58-30.94-169.72 31.28-16.144 105.19 101.66 117.57 121.98 12.06 19.816 29.17 124.64 46.85 123.76 15.01-0.75 70.72-18.597 70.72 18.563z"/>
  <path transform="matrix(.13333 0 0 -.13333 0 502.67)" d="m2962.4 881.26c72.49 53.039 107.84 123.76 162.65 243.97 38.78 85.07 98.18 132.34 132.59 210.38 72.49 164.42 51.27 212.16 63.65 365.96 4.83 60.07 10.78 140.31 12.38 190.95 1.91 60.79 1.77 132.59-10.61 190.93-25.9 122.07-49.29 138.61-76.02 228.07-24.4 81.64-17.68 175.02-83.1 288.16-83.96 145.25-125.51 136.13-157.34 189.17-32.88 54.8-68.2 123.01-113.15 167.95-58.34 58.34-165.11 106.52-224.52 144.97-60.11 38.9-133.67 108.64-236.9 150.28-109.62 44.2-210.39 40.66-314.69 61.88-92.01 18.71-136.29 36.52-245.75 42.43-130.82 7.07-268.72-42.43-335.9-60.11-72.49-26.52-171.49-19.45-270.49-84.86-49.87-32.96-78.02-46.3-134.36-91.94-32.77-26.54-137.86-88.49-176.8-118.45-91.933-70.71-114.16-103.25-155.58-150.27-65.414-74.26-72.09-121.23-104.3-162.65-19.402-24.94-60.933-83.06-106.08-171.49-30.711-60.15-73.086-117.98-99-192.7-33.211-95.76-47.738-201.57-47.738-298.78 0-70.72-17.676-120.22-17.676-190.94 0-95.48 21.074-192.46 45.965-263.42 14.957-42.64 12.793-113.35 30.055-157.35 21.566-54.96 66.726-138.07 83.093-208.61 14.145-60.11 129.06-159.11 146.74-192.7 15.91-61.883 49.504-113.15 95.465-152.05 56.972-48.207 111.4-90.055 146.74-123.75 78.188-74.574 134.51-126.36 215.69-139.67 107.84-17.68 100.47 80.375 121.98 160 8.85 32.707 18.57 42.43 41.55 77.789-40.66 38.895-122.69 140.6-188.28 170.6-58.3 26.67-70.3 58.96-120.22 125.52-32.42 43.53-71.679 98.24-100.78 150.27-37.781 67.58-86.023 132.54-104.3 182.09-23.7 64.23-11.227 66.01-24.754 157.36-7.071 47.73-42.43 146.73-42.43 233.36 0 60.11 3.535 99.01 3.535 159.12 0 106.53 15.914 176.79 42.43 235.13 35.504 78.1 91.933 160.88 136.13 254.58 36.757 77.92 91.927 93.7 164.42 217.46 25.77 44 104 69.4 162.65 109.61 40.59 27.82 106.53 83.48 150.27 104.31 42.96 20.45 70.61 28.23 118.45 45.96 39.33 14.58 74.26 35.36 144.97 45.96 29.7 4.46 57.28 1.62 88.4 1.77 33.11 0.17 69.99 5.31 123.75 5.31 153.23 0 284.64-28.29 374.8-61.88 45.57-16.98 77.38-47.8 125.52-72.49 68.95-35.36 199.78-81.32 291.71-180.32 54.24-58.42 95.42-176.19 148.51-243.98 30.79-39.73 65.41-74.25 79.55-136.13 13.85-60.6 14.87-119.73 31.83-180.33 19.03-68.03 61.88-125.87 61.88-194.47 0-111.38-3.54-91.93-3.54-203.32 0-137.76-32.16-246.33-88.4-344.74-35.35-61.87-42.27-102.16-70.71-148.51-29.21-47.56-67.52-88.82-109.62-123.74-42.33-35.13-144.96-118.45-205.07-194.48-38.38-48.539-62.77-76.02-127.29-91.934 30.05-25.637 29.77-23.441 32.7-46.852 12.38-99.003 24.75-175.02 48.62-190.05 27.5-17.317 56.73-27.567 121.99-17.68 58.34 8.84 106.07 53.039 175.02 152.04 43.06 61.84 108 82.125 169.72 127.29z"/>
  <path transform="matrix(.13333 0 0 -.13333 0 502.67)" d="m2405.4 965.24c-18.52 20.367-60.99-52.152-83.97-60.992-13.84-5.324-106.52 3.516-107.85-17.68-2.65-42.429 50.43-17.48 81.33-24.75 15.02-3.535 18.56-16.796 15.02-38.894-1.83-11.484-0.99-21.16 0-31.824 2.22-23.641 28.29-61.875 47.74-92.817 15.84-25.203 35.24-63.121 49.5-89.281 10.61-19.445 45.97-8.84 37.13 22.98-8.84 40.665-10.61 74.481-13.26 97.243-2.21 18.789-10.61 58.566-10.61 66.074 0 44.863-63.64 50.836-63.64 95.691 0 23.864 75.13 45.078 48.61 74.25"/>
  <path transform="matrix(.13333 0 0 -.13333 0 502.67)" d="m2226.9 838.83c0-11.492 1.77-18.562 3.54-25.633 38.01 4.418 58.34-13.261 56.57 18.563-0.64 11.765-51.71 5.75-60.11 7.07"/>
  <path transform="matrix(.13333 0 0 -.13333 0 502.67)" d="m2428.4 927.23c7.95-10.609 13.26-15.027 22.1-29.171-23.87-8.84-55.69-33.59-66.3-16.797-4.36 6.886 25.19 26.082 44.2 45.965z"/>
  <path transform="matrix(.13333 0 0 -.13333 0 502.67)" d="m1548 824.69c-7.07 1.766-6.85 0.883-14.14 0.883-14.59 0-29.62 4.418-44.2 4.418-5.31 0-5.44-16.254-4.42-20.328 2.65-10.609 19.45-10.609 60.11-5.305 4.64 6.414 2.65 12.157 2.65 20.332z"/>
  <path transform="matrix(.13333 0 0 -.13333 0 502.67)" d="m1317.3 901.59c7.95-9.723 30.49-38.449 45.08-37.125 2.42 0.219 15.03 11.719 14.14 16.793-2.05 11.758-37.57 29.176-45.52 41.551-2.66-5.083-9.28-14.145-13.7-21.219z"/>
 </g>
 <g fill="#fff">
  <path transform="matrix(.13333 0 0 -.13333 0 502.67)" d="m1555.6 543.02 47.65-10.996 0.88 3.824c-5.84 2.894-6.37 4.57-5.08 10.156l29.94 129.72c1.29 5.586 2.87 7.078 9.03 6.902l0.88 3.821-33.68 8.285-35.04-19.469-1.46-7.098 3.83-0.883 19.76 1.286-26.5-114.89c-1.3-5.582-3.1-6.719-9.32-6.832l-0.89-3.824z"/>
  <path transform="matrix(.13333 0 0 -.13333 0 502.67)" d="m1485.2 645.7c-3.43-11.914 3.33-24.086 15.41-27.554 12.07-3.454 24.09 3.339 27.5 15.25 3.41 11.906-3.12 24.199-15.21 27.671-12.07 3.457-24.29-3.461-27.7-15.367"/>
  <g fill-rule="evenodd">
   <path transform="matrix(.13333 0 0 -.13333 0 502.67)" d="m1742 646.29c25.35-3.121 35.31-9.719 33.6-23.57-1.7-13.856-12.95-17.868-38.31-14.746-25.34 3.101-35.3 9.714-33.6 23.57 1.7 13.855 12.96 17.855 38.31 14.746zm-7.97-62.453c28.01-3.442 41.14-13.43 39.15-29.637-1.99-16.215-17.16-22.73-45.16-19.293-28 3.438-41.13 13.43-39.14 29.637 1.99 16.219 17.15 22.73 45.15 19.293zm41.5 6.57c17.38 2.653 30.29 10.344 32.57 28.918 4.38 35.664-37.05 46.735-64.46 50.094-28.29 3.48-67.93 2.355-72.41-34.192-2.11-17.089 10.12-29.664 25.34-34.816l-0.07-0.59c-22.24-3.254-37.5-10.652-40.51-35.117-4.2-34.191 35.76-49.871 66.12-53.598 28.89-3.539 78.42-2.148 83.35 37.934 2.75 22.402-10.14 34.453-29.96 41.07l0.06 0.598-0.03-0.301"/>
   <path transform="matrix(.13333 0 0 -.13333 0 502.67)" d="m1931.3 582.58c22.27 0.391 37.89-10.027 38.18-26.652 0.3-16.637-14.96-27.586-37.22-27.981-22.28-0.386-37.91 10.031-38.2 26.66-0.29 16.633 14.97 27.582 37.24 27.973zm68.3 68.313c-0.87-0.903-3.24-1.243-5.62-1.282-3.26-0.054-8.36 3.117-17.33 6.52-8.67 3.426-21.5 6.465-39.91 6.144-47.8-0.839-82.52-36.496-81.69-84.297 0.81-46.613 29.85-76.402 77.05-75.574 32.07 0.563 71.83 19.664 71.19 56.782-0.57 32.07-30.85 48.468-59.95 47.96-21.07-0.371-36.42-5.98-54.66-16.101 0.65 30.598 18.49 46.359 48.49 46.879 9.5 0.168 33.9-2.969 42.13-14.707 1.52-1.758 1.85-3.828 2.48-5.598l3.57-1.121 16.66 32.359-2.41 2.036"/>
   <path transform="matrix(.13333 0 0 -.13333 0 502.67)" d="m2109.7 656.77c25.16 4.437 36.61 1.027 39.04-12.719 2.42-13.738-7.18-20.863-32.33-25.297-25.15-4.438-36.61-1.027-39.03 12.715s7.18 20.863 32.32 25.304zm10.64-62.043c27.79 4.89 43.27-0.817 46.1-16.903 2.84-16.082-9.75-26.75-37.54-31.648-27.78-4.899-43.26 0.816-46.1 16.894-2.83 16.09 9.76 26.746 37.54 31.657zm37.77 18.414c15.84 7.617 25.94 18.746 22.69 37.168-6.24 35.39-49.08 33.859-76.28 29.07-28.08-4.957-65.65-17.606-59.25-53.879 2.99-16.957 18.35-25.402 34.41-25.891l0.1-0.586c-20.31-9.613-32.75-21.152-28.48-45.429 5.99-33.914 48.79-37.223 78.91-31.914 28.66 5.058 75.63 20.871 68.61 60.648-3.92 22.219-19.76 29.981-40.66 30.512l-0.11 0.586 0.06-0.289z"/>
  </g>
  <g>
   <path transform="matrix(.13333 0 0 -.13333 0 502.67)" d="m2234.6 627.14c3.42-11.918 15.58-18.665 27.66-15.207 12.08 3.472 18.67 15.593 15.25 27.507-3.41 11.918-15.48 18.868-27.55 15.41-12.07-3.457-18.78-15.804-15.36-27.71z"/>
   <path transform="matrix(.13333 0 0 -.13333 0 502.67)" d="m2795.5 2712.4 4.23 3.08c-2.4 3.29-2.52 6.43 0.3 8.49l78.1 56.75-22.67-126.12c-0.71-4.46-1.5-6.83-2.68-7.69-1.41-1.02-3.14-0.13-4.34 1.52l-4.23-3.08 27.69-38.11 4.24 3.08c-1.72 2.34-1.84 5.5 0.98 7.54l106.81 77.61c2.83 2.05 5.78 0.96 7.49-1.4l4.23 3.08-25.81 35.52-4.24-3.07c2.91-4 3.04-7.15 0.22-9.19l-74.82-54.36 21.06 118.46c0.9 5.68 1.75 8.46 3.17 9.49 1.64 1.19 3.03 0.77 3.71-0.18l4.23 3.08-29.22 40.23-4.23-3.08c1.7-2.35 1.83-5.49-0.99-7.54l-106.81-77.6c-2.83-2.05-5.78-0.97-7.48 1.39l-4.23-3.08 25.29-34.82z"/>
   <path transform="matrix(.13333 0 0 -.13333 0 502.67)" d="m3256.6 1851.3-0.27 5.22c-4.08-0.21-7.12 2.55-7.56 10.67l-6.93 132.44-5.23-0.28c0.14-2.62-1.47-5.32-4.95-5.5l-131.85-6.91c-3.48-0.18-5.36 2.34-5.5 4.95l-5.23-0.28 7.1-135.32c0.3-5.8-0.07-9.91-5.87-10.21l0.27-5.23 40.66 2.13-0.28 5.23c-4.64-0.25-7.76 3.66-8.06 9.47l-5.09 97 40.09 2.1 2.98-56.92c0.39-7.55-1.11-12.28-9.82-12.74l0.27-5.23 45.31 2.37-0.28 5.24c-8.7-0.46-10.11 4.12-10.51 11.67l-2.99 56.92 36.01 1.89 4.94-94.09c0.43-8.14-1.75-11.17-5.82-11.38l0.28-5.22 38.34 2z"/>
   <path transform="matrix(.13333 0 0 -.13333 0 502.67)" d="m2162.5 3076.6 7.77 39.97-5.14 0.99c-0.88-4.57-5.43-6.64-11.14-5.53l-94.78 18.42 22.09 113.62c0.66 3.42 3.57 4.64 8.99 3.58l1 5.14-49.11 9.54-0.99-5.14c6-1.16 8.23-3.38 7.56-6.8l-25.19-129.6c-0.66-3.42-3.57-4.64-9.56-3.48l-1-5.13 135.88-26.41c5.71-1.11 9.6-2.46 8.49-8.17l5.13-1z"/>
   <path transform="matrix(.13333 0 0 -.13333 0 502.67)" d="m1229.3 757.71c6.56 10.508 3.43 24.07-7.22 30.727-10.65 6.66-24.07 3.433-30.63-7.071-6.57-10.511-3.68-24.129 6.98-30.785 10.65-6.656 24.3-3.383 30.87 7.129"/>
   <path transform="matrix(.13333 0 0 -.13333 0 502.67)" d="m1057.7 812.88-37.29 30.195c-2.72 2.203-4.78 6.117-1.49 10.188l-4.07 3.297-25.613-31.641 4.066-3.297c3.293 4.074 7.557 2.863 10.267 0.672l100.35-81.262c2.7-2.191 4.77-6.117 1.47-10.183l4.08-3.297 25.61 31.648-4.07 3.289c-3.29-4.066-7.55-2.863-10.26-0.664l-37.29 30.196 72.83 89.941c2.2 2.715 5.33 2.426 7.37 0.781l3.29 4.071-34.81 28.183-3.28-4.066c2.93-2.387 3.86-5.391 1.67-8.102l-72.84-89.949z"/>
   <path transform="matrix(.13333 0 0 -.13333 0 502.67)" d="m722.7 1149.6 2.996-4.3c3.34 2.34 7.383 1.62 12.051-5.05l76.063-108.62 4.297 3c-1.508 2.14-1.579 5.3 1.277 7.3l108.15 75.72c2.864 2 5.793 0.85 7.297-1.28l4.285 2.99-77.73 111.02c-3.332 4.76-5.195 8.43-0.434 11.76l-3 4.29-33.347-23.36 3-4.28c3.816 2.67 8.535 1.01 11.863-3.76l55.715-79.56-32.871-23.02-32.692 46.69c-4.343 6.19-5.578 11 1.571 16.01l-3.008 4.29-37.164-26.02 3-4.29c7.148 5 10.769 1.85 15.113-4.34l32.691-46.68-29.546-20.68-54.04 77.18c-4.667 6.66-4.429 10.39-1.097 12.72l-3 4.28-31.438-22.01z"/>
   <path transform="matrix(.13333 0 0 -.13333 0 502.67)" d="m770.23 1235.8c10.735 6.19 14.333 19.65 8.055 30.52-6.281 10.88-19.637 14.33-30.375 8.14-10.734-6.19-14.57-19.58-8.285-30.47 6.277-10.87 19.879-14.38 30.605-8.19"/>
   <path transform="matrix(.13333 0 0 -.13333 0 502.67)" d="m647.27 1294.6 4.922 1.79c-1.89 5.2-1.144 8.26 2.129 9.45l80.617 29.34c42.903 15.61 45.774 45.13 28.164 93.5-17.601 48.37-38.773 69.13-81.675 53.51l-80.617-29.34c-3.278-1.19-5.809 0.67-7.305 4.77l-4.922-1.79 15.918-43.72 4.918 1.79c-2.09 5.74-1.344 8.79 1.937 9.99l81.981 29.84c22.953 8.36 35.726-4.64 45.875-32.51 10.148-27.87 8.707-46.04-14.242-54.39l-81.985-29.83c-3.281-1.2-5.812 0.66-7.105 4.21l-4.922-1.78 16.316-44.83z"/>
   <path transform="matrix(.13333 0 0 -.13333 0 502.67)" d="m719.66 1575.3-5.14-0.99c0.781-4-0.43-6.9-3.86-7.56l-94.773-18.43 73.851 104.71c2.532 3.75 4.25 5.56 5.68 5.84 1.711 0.34 2.902-1.21 3.289-3.2l5.141 0.99-8.993 46.24-5.136-0.99c0.554-2.86-0.656-5.76-4.082-6.43l-129.6-25.19c-3.426-0.66-5.64 1.58-6.191 4.42l-5.141-0.99 8.379-43.11 5.137 1c-0.942 4.86 0.269 7.75 3.699 8.42l90.777 17.65-69.144-98.47c-3.215-4.77-5.168-6.93-6.883-7.26-1.996-0.39-3.074 0.59-3.301 1.72l-5.137-0.98 9.489-48.83 5.136 1.01c-0.55 2.85 0.665 5.75 4.09 6.42l129.6 25.2c3.426 0.65 5.641-1.58 6.187-4.43l5.145 1-8.215 42.24z"/>
   <path transform="matrix(.13333 0 0 -.13333 0 502.67)" d="m685.81 1783.9-5.207-0.55c0.519-4.92-0.942-7.71-4.411-8.07l-131.3-13.8c-3.469-0.36-5.477 2.05-6 6.97l-5.203-0.54 5.046-48.01 5.208 0.54c-0.52 4.92 0.941 7.7 4.414 8.07l131.3 13.8c3.473 0.37 5.477-2.05 5.996-6.97l5.204 0.55-5.043 48.01"/>
   <path transform="matrix(.13333 0 0 -.13333 0 502.67)" d="m524.01 1924.5 5.226 0.27c-0.277 5.23 1.024 8.2 4.223 8.38 3.191 0.16 11.871-4.33 22.281-8.45l80.602-32.17-77.914-41.36c-9.34-5.15-15.821-9.28-19.891-9.49-3.773-0.19-5.105 2.94-5.242 5.55l-5.223-0.27 2.727-51.99 5.223 0.29c1.41 6.47 2.98 9.75 6.941 12l110.81 58.23c8.5 4.52 14.993 8.35 16.735 8.45 1.457 0.07 3.515-0.4 4.207-2.4l5.226 0.27-2.328 44.43-5.226-0.27c-1.086-1.51-1.899-2.73-3.93-2.83-1.742-0.09-6.82 2.26-14.555 5.35l-115.66 45.48c-3.578 1.56-11.262 3.78-11.676 11.62l-5.226-0.28 2.664-50.81"/>
   <path transform="matrix(.13333 0 0 -.13333 0 502.67)" d="m540.25 2161.9-0.641-5.2c4.039-0.49 6.571-3.73 5.579-11.81l-16.161-131.62 5.2-0.64c0.32 2.6 2.371 4.98 5.836 4.56l131.04-16.09c3.465-0.44 4.882-3.24 4.558-5.84l5.196-0.64 16.519 134.51c0.711 5.77 1.781 9.74 7.555 9.03l0.64 5.2-40.41 4.96-0.636-5.2c4.617-0.56 7.011-4.96 6.296-10.73l-11.836-96.41-39.832 4.9 6.946 56.57c0.922 7.5 3.219 11.9 11.879 10.85l0.636 5.19-45.027 5.53-0.637-5.2c8.66-1.06 9.246-5.82 8.328-13.33l-6.945-56.57-35.797 4.4 11.489 93.52c0.984 8.07 3.652 10.68 7.695 10.19l0.633 5.19-38.098 4.68z"/>
  </g>
  <path transform="matrix(.13333 0 0 -.13333 0 502.67)" d="m592.56 2247.7 13.023 48.59c7.223 26.97 18.316 32.42 30.113 29.26 11.801-3.15 18.684-13.44 11.45-40.4l-13.02-48.6-41.57 11.15zm-29.868-35.05c1.508 5.62 3.872 7.69 7.243 6.78l127.52-34.17c3.371-0.9 4.379-3.87 2.871-9.49l5.059-1.36 13.019 48.59-5.058 1.36c-1.731-6.46-3.938-7.98-7.313-7.07l-50.004 13.39 10.766 40.17 52.094 19.15c4.687 1.76 7.39 2.85 9.355 2.32 1.684-0.45 2.336-3.64 1.438-7.01l5.054-1.36 14.075 52.53-5.055 1.36c-0.828-3.09-2.168-6.95-6.492-8.5l-63.383-23.06c2.129 25.93-6.297 45.04-30.738 51.59-32.02 8.58-50.141-11.85-59.778-47.81l-25.734-96.06 5.051-1.36z" fill-rule="evenodd"/>
  <g>
   <path transform="matrix(.13333 0 0 -.13333 0 502.67)" d="m759.03 2358.9c-0.64 1.31-1.015 3.12-0.355 4.42 3.961 7.77 22.461 12.05 42.793 51.96 14.261 27.98 27.23 75.22-8.524 93.45-62.187 31.68-77.441-93.06-110.34-76.29-11.403 5.81-6.172 26.97 1.617 42.25 10.168 19.95 29.808 37.36 40.609 38.72 2.09 0.23 4.555-0.04 7.016-0.97l2.355 2.06-23.281 34.39-3.652-2.06c0.504-1.56 0.234-3.38-1.086-5.98-4.489-8.8-26.289-19.57-44.641-55.57-21.918-43.02-10.578-73.93 10.934-84.89 63.48-32.34 77.433 93.05 109.04 76.95 15.812-8.05 3.211-39.82-2.594-51.23-8.317-16.31-29.418-37.88-40.613-38.7-1.692-0.12-3.121 0.28-4.676 1.08l-2.617-1.93 24.093-30.24 3.918 2.58z"/>
   <path transform="matrix(.13333 0 0 -.13333 0 502.67)" d="m882.02 2547.2-4.336 2.93c-2.762-4.1-5.668-5.3-8.567-3.34l-109.45 73.82c-2.898 1.96-2.875 5.1-0.113 9.21l-4.344 2.92-26.992-40.03 4.344-2.92c2.757 4.1 5.671 5.29 8.562 3.34l109.46-73.83c2.891-1.95 2.875-5.1 0.113-9.19l4.332-2.92 26.993 40.02z"/>
   <path transform="matrix(.13333 0 0 -.13333 0 502.67)" d="m857.54 2722.3 30.199 37.29c2.192 2.72 6.11 4.78 10.184 1.49l3.297 4.07-31.641 25.61-3.305-4.06c4.075-3.29 2.864-7.55 0.664-10.27l-81.253-100.34c-2.192-2.72-6.118-4.78-10.184-1.49l-3.293-4.06 31.644-25.63 3.286 4.07c-4.063 3.3-2.852 7.56-0.664 10.27l30.207 37.29 89.941-72.84c2.711-2.2 2.418-5.32 0.77-7.36l4.066-3.29 28.187 34.8-4.066 3.29c-2.387-2.94-5.387-3.87-8.098-1.68l-89.941 72.84z"/>
   <path transform="matrix(.13333 0 0 -.13333 0 502.67)" d="m892.78 2803c2.727 2.63 9.965 5.17 14.473 4.27l94.926-17.49 35.95-37.23c2.42-2.51 1.75-5.58-0.76-8.01l3.63-3.77 33.06 31.93-3.64 3.76c-2.92-2.83-6.02-3.4-8.44-0.89l-35.96 37.24-13.13 84.76c-2.59 16.5-1.71 19.77 3.11 24.42l-3.64 3.76-36.606-35.35 3.629-3.76c2.305 2.22 6.062 5.03 7.879 3.15 1.609-1.67 1.765-4.76 2.691-10.33l8.047-57.32c-18.633 4.65-60.676 11.34-63.906 14.7-2.621 2.71-0.313 5.76 2.203 8.19l-3.637 3.76-43.512-42.02 3.633-3.76z"/>
   <path transform="matrix(.13333 0 0 -.13333 0 502.67)" d="m1078 2877.3c7.96-9.49 21.83-10.71 31.46-2.63 9.62 8.07 10.71 21.83 2.73 31.32-7.96 9.5-21.81 10.94-31.43 2.87s-10.73-22.07-2.76-31.56"/>
  </g>
  <path transform="matrix(.13333 0 0 -.13333 0 502.67)" d="m1200 3041.1c25.15 15.72 62.39 17.04 79.8-10.83 17.42-27.86-0.1-60.76-25.25-76.47-25.15-15.72-62.39-17.04-79.81 10.82-17.41 27.87 0.1 60.76 25.26 76.48zm-14.18 22.68c-36-22.5-66.41-70.98-38.2-116.11 28.2-45.13 85.1-39.06 121.11-16.57 36 22.5 66.4 70.99 38.2 116.12-28.2 45.14-85.1 39.06-121.11 16.56z" fill-rule="evenodd"/>
  <path transform="matrix(.13333 0 0 -.13333 0 502.67)" d="m1505.9 3124.1c3.41-11.91 15.59-18.67 27.66-15.2 12.07 3.45 18.66 15.58 15.25 27.5-3.42 11.91-15.48 18.87-27.55 15.41-12.08-3.47-18.78-15.8-15.36-27.71z"/>
  <path transform="matrix(.13333 0 0 -.13333 0 502.67)" d="m1764.3 3162.2-3.71-2.88c0.7-0.77 1.48-2.14 1.64-3.29 1.5-10.66-29.88-27.69-54.07-31.09-32.54-4.57-63.1 10.22-67.75 43.34-4.67 33.11 20.64 55.76 53.18 60.33 19.01 2.68 50.05-2.95 52.99-11.34 0.49-1.41 0.94-2.52 1.11-3.66l3.16-1.62 17.56 38-4.81 2.85c-0.7-1.27-1.77-4.07-3.5-4.31-1.44-0.2-9.17 2.53-21.46 4.33-12.3 1.79-29.23 3.23-48.53 0.52-48.67-6.84-88.43-39.45-81.26-90.42 7.16-50.97 54.37-71.35 103.04-64.51 37.14 5.21 66.21 32.5 70.52 33.11 1.16 0.16 2.06 0 3.21 0.16l1.98 2.62-23.3 27.86z"/>
  <path transform="matrix(.13333 0 0 -.13333 0 502.67)" d="m1898.2 3229.6 22.52-54.9-51.73 1.8 29.21 53.1zm-47.85-111.81 0.18 5.23c-2.9 0.1-5.47 1.65-5.4 3.39 0.05 1.75 1.33 4.9 3.21 8.62l11.18 20.27 70.92-2.47 10.29-21.9c1.63-3.25 2.12-5.89 2.06-7.64-0.08-2.32-3.32-3.37-4.77-3.32l-0.18-5.23 51.15-1.79 0.18 5.23c-4.3 1.91-7.43 3.75-9.32 7.89l-56.33 120.4c-2.44 5.04-3.79 7.99-3.69 10.9 0.14 4.06 3.67 5.11 6.31 5.6l0.18 5.22-49.12 1.72-0.19-5.23c2.9-0.68 6.34-2.26 6.2-6.03-0.1-2.91-2.88-7.47-5.66-12.32l-57.72-111.17c-2.81-5.44-5.6-10.28-10.56-10.69l-0.19-5.23 41.27-1.45z" fill-rule="evenodd"/>
  <path transform="matrix(.13333 0 0 -.13333 0 502.67)" d="m2235.8 3061.2 1.37 5.06c-4.78 1.28-6.86 3.64-5.96 7.01l34.17 127.52c0.91 3.38 3.89 4.38 8.66 3.11l1.36 5.05-46.63 12.5-1.36-5.06c4.77-1.28 6.85-3.64 5.95-7.02l-34.18-127.52c-0.89-3.38-3.87-4.38-8.64-3.1l-1.37-5.06 46.63-12.49z"/>
  <path transform="matrix(.13333 0 0 -.13333 0 502.67)" d="m2473.9 3139.4-4.82 2.05c-1.59-3.75-5.4-5.29-12.89-2.11l-124.22 52.72-2.04-4.81c4.55-1.93 6.28-4.56 4.92-7.78l-51.59-121.53c-1.36-3.21-4.46-3.79-9-1.86l-2.05-4.81 45.5-19.32 2.05 4.81c-4.55 1.94-7.35 5.02-5.98 8.24l22.04 51.92 52.47-22.27c6.95-2.95 10.56-6.37 7.15-14.4l4.82-2.05 16.36 38.54-4.82 2.05c-2.04-4.82-6.78-4.07-13.74-1.12l-52.46 22.27 14.08 33.2 86.74-36.82c7.48-3.17 9.25-6.46 7.66-10.2l4.82-2.05 15 35.33z"/>
  <path transform="matrix(.13333 0 0 -.13333 0 502.67)" d="m3218.6 1751.5-3.51-50.2c-1.94-27.84-11.8-35.31-23.98-34.46-12.18 0.84-20.9 9.63-18.95 37.47l3.51 50.19 42.93-3zm22.63 40.1c-0.4-5.8-2.33-8.29-5.81-8.05l-131.71 9.21c-3.48 0.24-5.03 2.98-4.63 8.78l-5.23 0.37-3.5-50.2 5.22-0.36c0.47 6.67 2.35 8.58 5.83 8.34l51.64-3.61-2.9-41.49-47.49-28.74c-4.26-2.62-6.71-4.19-8.74-4.05-1.74 0.12-2.98 3.12-2.74 6.6l-5.23 0.37-3.79-54.25 5.22-0.37c0.23 3.19 0.81 7.24 4.76 9.58l57.81 34.73c2.86-25.85 14.78-43.01 40.01-44.77 33.07-2.31 46.97 21.2 49.56 58.33l6.95 99.21-5.23 0.37z" fill-rule="evenodd"/>
  <g>
   <path transform="matrix(.13333 0 0 -.13333 0 502.67)" d="m2818.6 864.36 3.84 3.571c-2.77 2.976-2.64 7.089 3.32 12.644l96.99 90.43-3.58 3.836c-1.91-1.789-5.01-2.293-7.39 0.254l-90.04 96.562c-2.38 2.55-1.66 5.61 0.26 7.39l-3.58 3.84-99.1-92.425c-4.26-3.973-7.64-6.324-11.6-2.067l-3.82-3.566 27.75-29.781 3.83 3.57c-3.17 3.402-2.17 8.309 2.08 12.27l71.03 66.239 27.37-29.35-41.68-38.862c-5.53-5.164-10.12-7.059-16.07-0.68l-3.83-3.574 30.94-33.172 3.82 3.571c-5.94 6.378-3.33 10.402 2.2 15.554l41.67 38.875 24.6-26.371-68.9-64.262c-5.96-5.546-9.67-5.836-12.45-2.851l-3.83-3.574 26.17-28.075z"/>
   <path transform="matrix(.13333 0 0 -.13333 0 502.67)" d="m2775.3 845.21c-3.01-2.281-10.51-3.926-14.88-2.481l-92.08 28.93-31.15 41.34c-2.1 2.785-1.06 5.758 1.72 7.855l-3.14 4.18-36.7-27.652 3.15-4.176c3.25 2.441 6.39 2.625 8.49-0.164l31.15-41.332 2.7-85.727c0.56-16.695-0.7-19.836-6.05-23.859l3.15-4.18 40.65 30.629-3.15 4.18c-2.57-1.93-6.63-4.266-8.2-2.172-1.4 1.859-1.17 4.934-1.43 10.578l-0.99 57.875c17.93-6.883 58.84-18.652 61.64-22.363 2.27-3.031-0.39-5.766-3.19-7.867l3.16-4.188 48.31 36.406-3.16 4.188z"/>
   <path transform="matrix(.13333 0 0 -.13333 0 502.67)" d="m2570.7 786.94c-7.29 10.016-21.04 12.196-31.2 4.813-10.17-7.383-12.2-21.031-4.92-31.059 7.29-10.019 21-12.437 31.16-5.058 10.16 7.386 12.23 21.273 4.96 31.301z"/>
   <path transform="matrix(.13333 0 0 -.13333 0 502.67)" d="m979.08 931.55-36.734-33.082c-2.598-2.336-5.641-1.559-7.391 0.386l-3.89-3.5 29.386-32.636 3.887 3.5c-1.945 2.164-2.398 5.285 0.191 7.617l98.113 88.34c2.59 2.332 5.64 1.558 7.59-0.602l3.89 3.5-29.38 32.633-3.89-3.504c1.75-1.941 2.2-5.062-0.39-7.394l-40.632-36.582-62.652 69.593 40.625 36.58c2.594 2.33 5.64 1.56 8.172-1.26l3.89 3.51-29.968 33.28-3.887-3.5c1.75-1.95 2.203-5.06-0.391-7.4l-98.113-88.339c-2.594-2.332-5.637-1.558-7.391 0.391l-3.886-3.5 29.961-33.281 3.89 3.5c-2.531 2.808-2.976 5.918-0.39 8.254l36.738 33.085 62.652-69.589z"/>
   <path transform="matrix(.13333 0 0 -.13333 0 502.67)" d="m1431 3200.8-4.66-2.37c1.85-3.63 0.58-7.55-6.68-11.23l-120.23-61.27 2.38-4.66c4.4 2.24 7.53 1.88 9.11-1.23l59.95-117.64c1.57-3.11 0.04-5.85-4.37-8.09l2.38-4.67 44.05 22.44-2.38 4.67c-4.4-2.25-8.56-2.41-10.14 0.7l-25.62 50.27 50.78 25.87c6.75 3.44 11.68 4 15.64-3.78l4.66 2.38-19.01 37.31-4.66-2.39c2.37-4.66-1.24-7.8-7.98-11.23l-50.79-25.89-16.37 32.14 83.95 42.77c7.26 3.7 10.9 2.94 12.75-0.68l4.67 2.37-17.43 34.2z"/>
   <path transform="matrix(.13333 0 0 -.13333 0 502.67)" d="m3092.2 1192.5 2.53 4.58c-3.56 1.98-4.69 5.93-0.74 13.05l64.29 115.99-4.58 2.54c-1.27-2.3-4.06-3.74-7.12-2.05l-115.47 64.01c-3.04 1.69-3.31 4.83-2.04 7.11l-4.57 2.54-65.7-118.52c-2.82-5.09-5.3-8.38-10.4-5.55l-2.53-4.58 35.61-19.73 2.53 4.57c-4.07 2.26-4.64 7.23-1.82 12.32l47.08 84.95 35.11-19.46-27.63-49.85c-3.67-6.62-7.46-9.84-15.08-5.61l-2.54-4.57 39.68-22 2.54 4.58c-7.63 4.23-6.4 8.86-2.73 15.47l27.63 49.85 31.54-17.48-45.68-82.41c-3.95-7.12-7.39-8.54-10.95-6.56l-2.54-4.58 33.58-18.61z"/>
   <path transform="matrix(.13333 0 0 -.13333 0 502.67)" d="m2841.2 1116.7 33.35-23.34 3 4.28c-3.81 2.67-3.86 7.67-0.52 12.43l55.37 79.09 94.81-66.38c2.86-2 2.79-5.15-0.38-9.67l4.29-3.01 28.69 40.97-4.3 3.01c-3.5-5-6.43-6.15-9.28-4.14l-108.16 75.72c-2.85 2-2.78 5.14 0.73 10.15l-4.3 3-79.39-113.39c-3.33-4.76-6.16-7.77-10.91-4.43l-3.01-4.29z"/>
   <path transform="matrix(.13333 0 0 -.13333 0 502.67)" d="m3130.6 1523.1-67.01-35.57c-3.7-1.83-6.01-2.79-7.15-2.52-1.41 0.32-1.65 1.87-1.13 4.13l-5.11 1.19-12.09-52.43 5.09-1.18c3.5 6.07 11.36 11.71 18.14 15.22l82.59 43.61 36.81-77.14c1.83-3.71 2.74-7.5 1.89-11.19l5.11-1.17 13.73 59.5-5.09 1.18c-0.53-2.28-2.12-3.99-4.67-3.4-1.98 0.46-3.81 4.16-7.11 10.6l-32.65 69.31 53.84-12.43c3.41-0.78 4.52-3.73 3.79-6.84l5.1-1.18 10.21 44.2-5.1 1.18c-0.85-3.68-3.14-5.84-6.54-5.06l-128.64 29.71c-3.4 0.77-4.51 3.72-3.66 7.41l-5.1 1.17-10.2-44.2 5.1-1.18c0.72 3.11 3 5.28 6.4 4.49l40.52-9.35 12.92-28.06z"/>
  </g>
  <g fill-rule="evenodd">
   <path transform="matrix(.13333 0 0 -.13333 0 502.67)" d="m2579.3 3054.7c24.6-16.58 40.94-50.07 22.57-77.3-18.38-27.24-55.55-24.63-80.13-8.05-24.6 16.59-40.95 50.07-22.58 77.32 18.39 27.24 55.55 24.62 80.14 8.04zm14.96 22.19c-35.2 23.73-91.86 31.78-121.62-12.34-29.75-44.11-1.06-93.63 34.13-117.37 35.2-23.74 91.86-31.79 121.62 12.32 29.76 44.12 1.07 93.64-34.13 117.39z"/>
   <path transform="matrix(.13333 0 0 -.13333 0 502.67)" d="m2735.3 2949.1 38.54-32.34c21.38-17.94 21.64-30.31 13.79-39.67s-20.07-11.25-41.45 6.7l-38.55 32.33 27.67 32.98zm-19.15 41.88c4.46-3.75 5.34-6.77 3.1-9.44l-84.86-101.14c-2.25-2.67-5.37-2.33-9.83 1.42l-3.36-4.01 38.53-32.34 3.37 4.01c-5.12 4.3-5.56 6.94-3.32 9.61l33.28 39.66 31.85-26.73-4.66-55.31c-0.38-4.99-0.55-7.9-1.84-9.46-1.14-1.33-4.3-0.57-6.97 1.66l-3.36-4 41.65-34.95 3.37 4c-2.45 2.06-5.38 4.9-4.95 9.48l5.88 67.19c22.6-12.89 43.48-13.34 59.74 6.05 21.32 25.4 10.45 50.45-18.06 74.38l-76.19 63.92-3.37-4z"/>
   <path transform="matrix(.13333 0 0 -.13333 0 502.67)" d="m3070.9 2471.1-41.74-42.2-18.55 48.33 60.29-6.13zm-121.61 0.34 4.88 1.89c-1.04 2.71-0.62 5.67 1.01 6.3s5.03 0.69 9.19 0.41l23.02-2.38 25.43-66.23-16.13-18.04c-2.36-2.77-4.6-4.25-6.23-4.88-2.18-0.83-4.4 1.74-4.92 3.1l-4.89-1.88 18.34-47.78 4.89 1.87c0.06 4.7 0.55 8.32 3.62 11.68l88.82 98.88c3.67 4.21 5.87 6.62 8.59 7.66 3.79 1.46 6.13-1.38 7.61-3.61l4.88 1.87-17.61 45.88-4.87-1.88c0.5-2.92 0.38-6.7-3.15-8.06-2.72-1.03-8-0.26-13.55 0.42l-124.89 9.68c-6.09 0.46-11.65 1.14-13.97 5.54l-4.88-1.87 14.8-38.56z"/>
  </g>
  <path transform="matrix(.13333 0 0 -.13333 0 502.67)" d="m3086.9 2319c-11.92-3.42-18.66-15.6-15.21-27.67 3.47-12.07 15.59-18.66 27.51-15.24 11.91 3.41 18.87 15.48 15.41 27.55-3.47 12.07-15.81 18.77-27.71 15.36"/>
  <path transform="matrix(.13333 0 0 -.13333 0 502.67)" d="m3179.8 2175.4 13.44-53.89c4.23-16.93 4.5-30.06-9.61-33.57-14.11-3.53-20.03 8.19-24.25 25.12l-13.44 53.9 33.86 8.44zm-58.12-14.5 13.43-53.89c5.78-23.14 0.41-35.26-11.73-38.29-12.13-3.02-22.56 5.17-28.33 28.3l-13.43 53.89 40.06 9.99zm72.41 60.61-5.09-1.26c1.34-5.36 0.28-8.33-3.11-9.16l-128.1-31.95c-3.39-0.84-5.71 1.28-7.05 6.64l-5.08-1.27 25.82-103.55c8.87-35.56 30.86-51.65 53.43-46.02 21.45 5.34 28.66 22.12 29.37 40.88l0.56 0.14c9.09-13.62 20.73-24.2 38.51-19.77 29.34 7.32 31.48 42.02 22.75 77l-22.02 88.32z" fill-rule="evenodd"/>
  <path transform="matrix(.13333 0 0 -.13333 0 502.67)" d="m2918.8 2531 4.53 2.62c-2.48 4.29-2.26 7.43 0.75 9.17l114.33 66.01c3.03 1.75 5.85 0.36 8.32-3.93l4.54 2.63-24.14 41.79-4.54-2.61c2.48-4.28 2.27-7.42-0.75-9.17l-114.33-66.01c-3.03-1.75-5.84-0.35-8.32 3.93l-4.53-2.62 24.14-41.81z"/>
 </g>
 <path transform="matrix(.13333 0 0 -.13333 0 502.67)" d="m1892.3 1168.4 0.41-36.04m469.86 1743.9h-240.44m543.17-1756.2-21.63 39.58m-369.96-175.7 18.56-45.571m-760.62 95.756-38.48-97.92m-346.04 1659-86.63-28.29m644.41 209.06-342.98-110.05m530.37-1828 0.41-59.027m-776.08 320.33 31.38 53.39m1754.2 336.98 17.12-21.39m-1228.6 1245.5-68.95-42.43m1266.2-771.5 98.38-88.95m-279.12 535.15 189.58-115.6m-293.61 380.28 121.71-36.62m-1644.2-873.35-188.76-262.34m188.76 624.76-266.55-267.64m266.55 536.37-241.8-143.89m998.47 479.79-4.86-16.79m59.66 36.24v-61.88m-170.6 206.85-511.81-93.7m449.93 138.34-250.16-0.44m650.6-44.2 533.91-93.7m-503.85-24.75 68.94-42.43m-83.09 104.3 341.62-106.75m-471.56-1.09 4.83-16.59" fill="none" stroke="#fff" stroke-linecap="round" stroke-miterlimit="22.926" stroke-width="20.366"/>
 <path transform="matrix(.13333 0 0 -.13333 0 502.67)" d="m2645.9 2530.7c-60.11 15.92-91.92 42.44-137.89 97.25-42.44-31.83-89.92-47.54-155.39-47.54-105.94 0-218.93 35.31-268.37 35.31-75.76 0-157.65-22.33-182.86-80.61-2.53-5.82-7.74-27.83-8.63-39.76-1.32 12.16-3.53 27.93-8.52 39.54-25.1 58.44-107.1 80.83-182.96 80.83-49.43 0-162.43-35.32-268.38-35.32-65.46 0-155.37 47.55-155.37 47.55s-35.12-38.75-61.88-58.35c-26.15-19.16-72.49-40.65-72.49-40.65v-1319.8h648.83s3.98 5.3 10.61 15.02h185.63c4.07-7.98 8.84-10.6 8.84-10.6h648.83v1317.1z" fill="#fff"/>
 <g fill="none" stroke-linecap="round" stroke-miterlimit="22.926">
  <path transform="matrix(.13333 0 0 -.13333 0 502.67)" d="m1277.6 2622.7-0.11-1287.1c293.46 0 346.51 60.12 477.34 60.12 63.56 0 121.01-53.09 137.89-99m537.58 17.38c-256.46 7.31-288.88 39.19-389.07 39.19-64.91 0-99.88-41.55-110.49-62.77m577.23 1335.7v-1285.3c-295.25-9.71-346.52 54.82-477.35 54.82-63.56 0-120.21-53.09-137.1-99.01m683.39 1262.3v-1281.8c-381.83 0-457.01 37.13-539.21 37.13-29.07 0-65.42-24.75-74.26-42.44m-753.13 1290.6v-1292.4c381.82 0 468.5 44.19 537.45 44.19 29.06 0 65.41-24.75 74.25-42.44m-578.11 1320.6v-1288.8c360.61 0 387.17 49.51 500.32 49.51 64.91 0 96.35-39.78 106.96-60.99m136.68-65.19c-2.2 4.3-3.11 10.36-4.97 16.57 22.98 21.21 47.75 28.28 81.33 28.28 70.71 0 220.98-30.05 546.28-30.05v613.47m-1435.6 687.72v-1303c373.91 0 515.35 30.95 546.29 30.95 33.15 0 67.18-9.73 86.62-27.4-1.45-6.69-2.97-11.99-5.3-16.8m739.1 1365.3-0.11-1272m69.06 697-0.11 524.19" stroke="#c4820e" stroke-linejoin="round" stroke-width="15.275"/>
  <path transform="matrix(.13333 0 0 -.13333 0 502.67)" d="m2507.6 2626.9c-7.07-14.14-10.6-21.21-25.89-34.71-36.38-20.86-77.78-31.18-130.84-31.18-105.95 0-218.94 35.3-268.38 35.3-75.76 0-157.65-22.33-182.87-80.6-2.51-5.84-7.73-27.84-8.61-39.77-1.33 12.16-3.54 27.93-8.53 39.54-25.1 58.44-107.09 80.83-182.96 80.83-49.43 0-162.43-35.3-268.37-35.3-38.09 0-84.45 16.08-116.56 29.54-23.09 9.68-36.83 39.21-36.83 39.21s-35.27-38.74-62.1-58.35c-26.17-19.13-72.48-40.65-72.48-40.65v-1319.8h648.82s3.98 5.31 10.61 15.04h185.63c4.07-7.99 8.84-10.61 8.84-10.61h648.83v1317.1c-60.11 15.91-92.34 39.59-138.31 94.39z" stroke="#fff" stroke-linejoin="round" stroke-width="42.431"/>
  <g stroke="#c4820e">
   <path transform="matrix(.13333 0 0 -.13333 0 502.67)" d="m1892.9 1296.7-0.07 1288.6" stroke-linejoin="round" stroke-width="15.275"/>
   <g>
    <path transform="matrix(.13333 0 0 -.13333 0 502.67)" d="m1935.2 2501c21.96 37.64 56.29 51.76 127.29 54.45" stroke-width="15.275"/>
    <path transform="matrix(.13333 0 0 -.13333 0 502.67)" d="m2101.4 2553.7c26.04-8.54 90.02-26.93 187.5-30.06" stroke-width="13.238"/>
    <path transform="matrix(.13333 0 0 -.13333 0 502.67)" d="m2327.7 2523c31.2-0.11 67.41 0.71 109.62 2.77" stroke-width="15.275"/>
    <path transform="matrix(.13333 0 0 -.13333 0 502.67)" d="m1935.2 2436c24.75 42.43 65.19 54.96 156.12 54.96 17.72 0 29.93-5.7 51.67-12.37" stroke-width="13.238"/>
    <path transform="matrix(.13333 0 0 -.13333 0 502.67)" d="m1935.2 2296c24.75 42.43 65.19 54.96 156.12 54.96 16.64 0 28.44-5.04 47.82-11.17m266.32 47.83c10.21 0.38 20.82 0.83 31.83 1.37m-341.21 26.87c47.73-3.53 49.5-29.32 270.52-29.32m-431.4-22.3c22.67 38.86 58.5 52.65 134.25 54.68m311.2 39.71c17.57 0.45 36.41 1.14 56.64 2.14m-254.29 8.02c31.53-5.93 77.11-10.73 148.22-10.81" stroke-width="15.275"/>
    <path transform="matrix(.13333 0 0 -.13333 0 502.67)" d="m1935.2 2229.5c12.86 22.05 33.89 34.8 60.11 43.14m194.78 54.84c45.57-7.78 118.45-13.03 247.2-6.75" stroke-width="13.238"/>
    <path transform="matrix(.13333 0 0 -.13333 0 502.67)" d="m1935.2 2157.4c24.75 42.43 107.84 71.07 182.09 48.09m263.36-23.62c16.56 0.46 37.77-0.64 56.64 0.28m-212.15 76.38c60.1-5.31 131.05-8.21 212.15-4.25m-410.16 25.46c7.07 3.54 15.91 4.76 49.5 4.76 26.26 0 58.34-17.13 116.68-22.44" stroke-width="15.275"/>
    <path transform="matrix(.13333 0 0 -.13333 0 502.67)" d="m2154 2196.8c29.2-7.97 78.22-17.84 191.36-17.84" stroke-width="13.238"/>
    <path transform="matrix(.13333 0 0 -.13333 0 502.67)" d="m1935.2 2083.8c21.58 37 55.1 51.27 123.62 54.31" stroke-width="15.275"/>
    <path transform="matrix(.13333 0 0 -.13333 0 502.67)" d="m2091.3 2138.8c41.12 0 86.08-32.88 222.23-32.88" stroke-width="13.238"/>
    <path transform="matrix(.13333 0 0 -.13333 0 502.67)" d="m1935.2 2011.7c24.75 42.43 65.19 54.96 156.12 54.96 23.14 0 45.43-9.11 88.36-17.63m169.21 57.42c20.5 0.43 64.13 0.94 88.4 2.12" stroke-width="15.275"/>
    <path transform="matrix(.13333 0 0 -.13333 0 502.67)" d="m1935.2 1939.5c15.54 26.64 37.26 41.5 73.79 48.86m220.29 52.76c47.48-5.73 113.04-9.01 208.01-4.73" stroke-width="13.238"/>
    <path transform="matrix(.13333 0 0 -.13333 0 502.67)" d="m1934.8 1872c24.76 42.43 70.72 54.96 130.83 54.96m251.36 39.68c33.62-1.46 23.35-0.94 70.4-0.94m-335.5 27.81c11.98 0.69 25.08 1 39.45 1 37.5 0 58.49-17.39 186.87-25.78" stroke-width="15.275"/>
    <path transform="matrix(.13333 0 0 -.13333 0 502.67)" d="m2115.7 1919.5c23.44-5 53.4-11.74 94.76-17.67" stroke-width="13.238"/>
    <path transform="matrix(.13333 0 0 -.13333 0 502.67)" d="m2122.2 1765.2c21.35-5.24 65.26-14.15 103.06-18.97m-290.46-16.03c24.76 42.43 60.11 47.38 130.83 47.38 10.21 0 19.97-1.81 31.54-4.68m-66.63 75.81c11.58 1.04 24.38 1.51 38.63 1.51 41.9 0 96.59-29.33 265.13-38.26m-399.5-16.7c15.17 26 34.32 40.77 63.95 48.31m254.4 52.94c45.79-4.83 15.89-5.1 88.28-5.1" stroke-width="15.275"/>
    <path transform="matrix(.13333 0 0 -.13333 0 502.67)" d="m2260.1 1742.4c45.21-4.31 56.24-6.53 130.4-6.53" stroke-width="13.238"/>
    <path transform="matrix(.13333 0 0 -.13333 0 502.67)" d="m2087.3 1696.4c36.34 0.89 106.04-17.29 172.71-20.33m-324.78-19.39c24.75 42.43 56.57 43.13 109.61 43.13" stroke-width="13.746"/>
    <path transform="matrix(.13333 0 0 -.13333 0 502.67)" d="m1634.7 2530.2c-35.45-10.12-79.52-8.35-118.54-8.35m419-1090.1c9.47 16.26 19.99 26.19 32.94 32.25m409.04 140.3c19.9-0.57 14.47 0 37.12 0" stroke-width="15.275"/>
    <path transform="matrix(.13333 0 0 -.13333 0 502.67)" d="m1578.2 2462.5c-16.12-1.92-37.24-3.16-56.7-3.16m328.83 41.73c-24.75 42.42-77.78 47.37-134.36 47.37-14.09 0-29.63-1.95-46.37-4.74" stroke-width="13.238"/>
    <path transform="matrix(.13333 0 0 -.13333 0 502.67)" d="m1654.8 2401.6c-34.48-6.88-79.4-14.44-133.34-14.44m328.83 48.8c-24.75 42.43-74.25 48.79-137.89 48.79-30.1 0-54.8-12.38-99.18-16.82" stroke-width="15.275"/>
    <path transform="matrix(.13333 0 0 -.13333 0 502.67)" d="m1796.9 2405.8c-18.8 5.49-40.97 6.82-66.82 6.82-9.25 0-30.68-4.21-40.66-5.66" stroke-width="13.238"/>
    <path transform="matrix(.13333 0 0 -.13333 0 502.67)" d="m1850.3 2363.8c-5.71 9.78-12.16 17.65-19.43 23.96" stroke-width="15.275"/>
    <path transform="matrix(.13333 0 0 -.13333 0 502.67)" d="m1429.6 2321.9c-24.5-0.2-51.51-0.16-81.34 0.19" stroke-width="13.238"/>
    <path transform="matrix(.13333 0 0 -.13333 0 502.67)" d="m1436.6 2183.9-88.41 1.03m502.09 47.38c-24.75 42.43-70.71 48.8-137.89 48.8-29.73 0-60.76-10.74-137.64-18.07m275.53 34.33c-8.27 14.19-31.17 33.43-44.19 40.67m-33.18 4.84c-17.78 2.56-37.96 3.29-60.52 3.29-41.78 0-58.4-19.69-243.89-23.67" stroke-width="15.275"/>
    <path transform="matrix(.13333 0 0 -.13333 0 502.67)" d="m1751.4 2208.4c-49.61 7.69-132.48-21.1-279.33-24.13" stroke-width="13.238"/>
    <path transform="matrix(.13333 0 0 -.13333 0 502.67)" d="m1406.6 2256.4c-13.5 0.1-43.54 0.32-58.34 0.63m502.09-96.88c-8.83 18.74-26.51 39.95-60.27 44.44" stroke-width="15.275"/>
    <path transform="matrix(.13333 0 0 -.13333 0 502.67)" d="m1454.3 2109.2c-30.98-0.46-66.09-0.27-106.09 0.81m190.84 150.19c-28.53-1.91-62.22-3.29-102.45-3.7" stroke-width="13.238"/>
    <path transform="matrix(.13333 0 0 -.13333 0 502.67)" d="m1539.2 2042.1c-47.46-2.99-109.12-4.87-191-4.26m502.09 47.38c-24.75 42.43-68.94 58.34-137.89 47.03m-38.9-2.83c-34.19-5.94-104.29-16.91-187.39-19.54" stroke-width="15.275"/>
    <path transform="matrix(.13333 0 0 -.13333 0 502.67)" d="m1757.5 2064c-74.18 0-94.66-12.09-190.16-19.87" stroke-width="13.238"/>
    <path transform="matrix(.13333 0 0 -.13333 0 502.67)" d="m1684.1 1986.2c-37.55-6.18-116.68-19.37-236.87-19.37m-31.9-0.63c-20.72-0.33-43.04-0.5-67.14-0.5m502.09 47.38c-5.3 14.67-22.09 41.19-56.06 46.51" stroke-width="15.275"/>
    <path transform="matrix(.13333 0 0 -.13333 0 502.67)" d="m1850.3 1941c-24.75 42.43-56.57 57.63-127.28 50.92" stroke-width="13.238"/>
    <path transform="matrix(.13333 0 0 -.13333 0 502.67)" d="m1492.6 1894.6c-38.44-2.17-85.78-3.56-144.8-3.56" stroke-width="15.275"/>
    <path transform="matrix(.13333 0 0 -.13333 0 502.67)" d="m1613.9 1907.7c-27.41-7.07-56.29-7.91-87.51-10.61" stroke-width="13.238"/>
    <path transform="matrix(.13333 0 0 -.13333 0 502.67)" d="m1385.4 1813.3c-12.05-0.21-24.55-0.32-37.55-0.32m502.1 60.44c-24.76 42.43-53.93 53.74-123.76 53.74-16.14 0-57.01-8.03-76.91-12.37" stroke-width="15.275"/>
    <path transform="matrix(.13333 0 0 -.13333 0 502.67)" d="m1592 1829.2c-47.96-10.98-92.64-12.48-162.8-15.03" stroke-width="13.238"/>
    <path transform="matrix(.13333 0 0 -.13333 0 502.67)" d="m1686.9 1769.1c-35.4-6.88-86.72-22.72-186.61-31.43m-32.2-2.44c-34.62-2.22-74.35-3.59-120.23-3.59m502.1 65.06c-9 15.42-15.96 20.29-26.52 28.65m-26.52 15.02c-22.99 12.38-48.21 11.3-77.79 11.3-22.61 0-49.67-8.09-95.59-16.87" stroke-width="15.275"/>
    <path transform="matrix(.13333 0 0 -.13333 0 502.67)" d="m1849.9 1717.5c-24.76 42.43-69.84 61-134.37 54.97" stroke-width="13.238"/>
    <path transform="matrix(.13333 0 0 -.13333 0 502.67)" d="m1376.5 1657.6c-9.17-0.11-18.58-0.17-28.27-0.17" stroke-width="15.275"/>
    <path transform="matrix(.13333 0 0 -.13333 0 502.67)" d="m1560.2 1669.2c-42.17-5.35-61.79-11.8-148.37-11.8" stroke-width="13.238"/>
    <path transform="matrix(.13333 0 0 -.13333 0 502.67)" d="m1850.3 1645.4c-24.75 42.43-56.57 50.91-127.28 50.91-25.86 0-58.52-10.64-119.71-20.79" stroke-width="15.275"/>
    <path transform="matrix(.13333 0 0 -.13333 0 502.67)" d="m1493.4 1583.1c-18.67-1.14-38.9-2.02-60.63-2.56m157.31-62.17c-12.37-5.3-24.38-5.85-36.96-7.08m441.81-35.35c26.52 8.84 20.73 8.84 35.36 8.84m-179.92-48.77c-6.73 11.52-14.14 26.86-38.89 35.71m38.89 101.48c-19.22 32.96-53.91 45.26-88.25 44.42" stroke-width="13.238"/>
    <path transform="matrix(.13333 0 0 -.13333 0 502.67)" d="m1850.4 1501.1c-24.75 42.43-56.68 46.66-109.72 46.66-23.7 0-62.66-12.72-118.79-24.35m101.22 95.08c-36.17 0-75.09-19.54-198.58-32.23" stroke-width="15.275"/>
    <path transform="matrix(.13333 0 0 -.13333 0 502.67)" d="m1935.4 1503.9c22.32 38.27 46.91 43.17 93.05 43.76" stroke-width="13.746"/>
    <path transform="matrix(.13333 0 0 -.13333 0 502.67)" d="m1783.3 1476.2c-12.31 4.38-26.69 0.84-42.59 0.84-26.17 0-63.54-14.41-120.75-27.07m319.74 133.91c18.85 32.3 63.18 41.4 92.31 41.63" stroke-width="15.275"/>
   </g>
   <path transform="matrix(.13333 0 0 -.13333 0 502.67)" d="m1416.3 2526.3c45.97-2.22 62.76 0.43 62.76-41.55v-67.18c0-41.54-36.91-35.69-65.41-33.59-29.21 2.16-62.32-5.3-61.88 45.96v68.07c0 43.31 41.57 29.39 64.53 28.29z" stroke-linejoin="round" stroke-width="15.275"/>
  </g>
 </g>
 <path transform="matrix(.13333 0 0 -.13333 0 502.67)" d="m1405.2 2501.6c11.49-0.88 13.7-1.33 24.59-1.87 4.11-31.98 20.42-85.82 20.42-92.33-7.88-0.5-9.28-1.56-17.16 0l-6.64 30.56c-8.78 0-20.55 1.77-20.55 1.77-2.74-13.68-4.64-15.91-7.29-30.5-5.3 1.33-13.26-0.02-18.57 1.77 9.59 34.59 14.23 58.92 25.19 90.61zm11.49-17.24c-3.97-12.81-7.29-30.05-7.29-30.05s4.25-1.17 14.14-1.54c0 0-2.43 17.45-6.85 31.59" fill="#c4820e" fill-rule="evenodd"/>
 <path transform="matrix(.13333 0 0 -.13333 0 502.67)" d="m2294.4 1673c44.73-4.53 33.22-4.4 92.93-4.36" fill="none" stroke="#c4820e" stroke-linecap="round" stroke-miterlimit="22.926" stroke-width="15.275"/>
 <path transform="matrix(.13333 0 0 -.13333 0 502.67)" d="m1362.8 1181.6c0-17.68-16.38-15.72-16.38-29.86s47.73-42.43 47.73-61.87c0-19.45 1.77-33.59 1.77-40.67 0-19.44 20.33-22.31 20.33-22.31s5.62 17.89 30.93 17.89c38.9 0 42.44-60.985 0-60.985-21.21 0-32.7 12.375-32.7 35.355-22.98 12.38-45.08 1.77-52.15 51.27-7.08 49.5-38.9 12.38-65.42 40.66-26.51 28.29-12.78 11.3-23.39 48.42 0 1.77-1.69-27.65-22.57-39.58-24.75-14.14-24.83-29.88-5.3-38.89 11.49-5.31 14.14-28.29 31.82-45.97 10.61 14.14 51.27 15.91 51.27-30.05 0-33.59-70.06-33.364-54.15 24.09-3.54 30.06-21.93 16.12-60.77 21.87-23.86 3.54-27.4 15.03-27.4 43.32 0 28.28 32.71 31.89 32.71 62.76 0 8.5-2.36 16.99-5.57 24.62 27.25-0.07 92.67-0.07 149.24-0.07z" fill="#fff"/>
 <path transform="matrix(.13333 0 0 -.13333 0 502.67)" d="m1362.8 1181.6c0-17.68-16.38-15.72-16.38-29.86s47.73-42.43 47.73-61.87c0-19.45 1.77-33.59 1.77-40.67 0-19.44 20.33-22.31 20.33-22.31s5.62 17.89 30.93 17.89c38.9 0 42.44-60.985 0-60.985-21.21 0-32.7 12.375-32.7 35.355-22.98 12.38-45.08 1.77-52.15 51.27-7.08 49.5-38.9 12.38-65.42 40.66-26.51 28.29-12.78 11.3-23.39 48.42 0 1.77-1.69-27.65-22.57-39.58-24.75-14.14-24.83-29.88-5.3-38.89 11.49-5.31 14.14-28.29 31.82-45.97 10.61 14.14 51.27 15.91 51.27-30.05 0-33.59-70.06-33.364-54.15 24.09-3.54 30.06-21.93 16.12-60.77 21.87-23.86 3.54-27.4 15.03-27.4 43.32 0 28.28 32.71 31.89 32.71 62.76 0 8.5-2.36 16.99-5.57 24.62 27.25-0.07 92.67-0.07 149.24-0.07v0z" fill="none" stroke="#c4820e" stroke-linecap="round" stroke-linejoin="round" stroke-miterlimit="22.926" stroke-width="15.275"/>
 <path transform="matrix(.13333 0 0 -.13333 0 502.67)" d="m1099.8 1396.2s-39.78-8.41-39.78-68.52c0-45.09 24.04-62.76 44.2-62.76 5.22 0 6.48 0.89 10.31 2.02v-40.44c-9.77-6.4-19.81-10.2-37.71-10.2-34.48 0-82.208 20.34-82.208 85.75 0 14.49 13.258 65.86 105.19 94.15z" fill="#fff" fill-rule="evenodd"/>
 <path transform="matrix(.13333 0 0 -.13333 0 502.67)" d="m1099.8 1396.2s-39.78-8.41-39.78-68.52c0-45.09 24.04-62.76 44.2-62.76 5.22 0 6.48 0.89 10.31 2.02v-40.44c-9.77-6.4-19.81-10.2-37.71-10.2-34.48 0-82.208 20.34-82.208 85.75 0 14.49 13.258 65.86 105.19 94.15v0z" fill="none" stroke="#c4820e" stroke-linecap="round" stroke-miterlimit="22.926" stroke-width="15.275"/>
 <path transform="matrix(.13333 0 0 -.13333 0 502.67)" d="m2295.8 1153.5c3.21-30.99 8.58-58.03 2.66-76.02-13.7-41.5-52.02-50.5-61.88-60.99-11.77-12.49-42.35-53.405-89.29-69.834-35.35-12.375-23.15-43.485-95.46-58.34-129.06-26.52-192.71 3.539-220.99 1.769-96-6-132.24 66.083-196.24 81.325-37.13 8.84-54.81 88.39-106.07 118.45-51.62 30.25-74.26 97.24-84.87 153.81-10.61 56.58-115.8 167.07-239.55 167.07-80.44 0-188.76-25.3-209.97-104.85-1.77 67.19 85.334 110.97 85.334 167.61 0 35.36-12.38 23.86-12.38 44.2 0 46.85 125.8 75.78 139.67 72.48 37.13-8.84 84.63 22.54 119.99-2.2 45.8-32.07 53.26-15.48 123.98-54.37 70.72-38.9 94.45-88.68 148.51-127.29 49.5-35.36 22.98-129.07 95.46-175.02 88.64-56.21 38.9-86.63 130.83-111.39 91.93-24.74 60.11-49.5 169.72-38.89 46.69 4.52 48.11 29.28 71.6 42.43 31.65 17.72 76.91 26.66 76.91 53.04 0 45.97-1.77 60.11-1.77 60.11 40.66 0 148.52-32.1 153.81-83.09z" fill="#fff"/>
 <path transform="matrix(.13333 0 0 -.13333 0 502.67)" d="m2295.8 1153.5c3.21-30.99 8.58-58.03 2.66-76.02-13.7-41.5-52.02-50.5-61.88-60.99-11.77-12.49-42.35-53.405-89.29-69.834-35.35-12.375-23.15-43.485-95.46-58.34-129.06-26.52-192.71 3.539-220.99 1.769-96-6-132.24 66.083-196.24 81.325-37.13 8.84-54.81 88.39-106.07 118.45-51.62 30.25-74.26 97.24-84.87 153.81-10.61 56.58-115.8 167.07-239.55 167.07-80.44 0-188.76-25.3-209.97-104.85-1.77 67.19 85.334 110.97 85.334 167.61 0 35.36-12.38 23.86-12.38 44.2 0 46.85 125.8 75.78 139.67 72.48 37.13-8.84 84.63 22.54 119.99-2.2 45.8-32.07 53.26-15.48 123.98-54.37 70.72-38.9 94.45-88.68 148.51-127.29 49.5-35.36 22.98-129.07 95.46-175.02 88.64-56.21 38.9-86.63 130.83-111.39 91.93-24.74 60.11-49.5 169.72-38.89 46.69 4.52 48.11 29.28 71.6 42.43 31.65 17.72 76.91 26.66 76.91 53.04 0 45.97-1.77 60.11-1.77 60.11 40.66 0 148.52-32.1 153.81-83.09z" fill="none" stroke="#c4820e" stroke-miterlimit="22.926" stroke-width="15.275"/>
 <path transform="matrix(.13333 0 0 -.13333 0 502.67)" d="m2295.1 1160.6c-3.53 24.76-53.14 61.88-122.97 72.49-88.51 13.44-182.1 19.45-182.1 132.6 0 26.83 28.5 42.69 58.31 50.52 38.34 10.08 87.81 6 125.11-9.41 0 0-34.91-12.83-34.91-60.57 0-67.17 156.56-87.17 156.56-185.62z" fill="#fff"/>
 <path transform="matrix(.13333 0 0 -.13333 0 502.67)" d="m2295.1 1160.6c-3.53 24.76-53.14 61.88-122.97 72.49-88.51 13.44-182.1 19.45-182.1 132.6 0 26.83 28.5 42.69 58.31 50.52 38.34 10.08 87.81 6 125.11-9.41 0 0-34.91-12.83-34.91-60.57 0-67.17 156.56-87.17 156.56-185.62z" fill="none" stroke="#c4820e" stroke-miterlimit="22.926" stroke-width="15.275"/>
 <path transform="matrix(.13333 0 0 -.13333 0 502.67)" d="m2731.6 1702.5c22.59 10.77 39.93 15.02 59.22 15.02 70.72 0 91.93-21.21 102.54-106.07s-79.55-226.29-116.68-258.11c-78.56-67.34-172.84-20.53-325.3-40.66-46.85-6.19-96.76 67.18-158.22 67.18-79.56 0-131.72 43.31-183.87 41.54-35.35-1.2-106.96-1.77-119.34-55.69 1.33 37.57 95.47 73.28 95.47 163.53 0 40.67-33.59 32.71-33.59 43.32 0 24.75 21.21 49.5 95.46 49.5 76.76 0 91.94-7.07 134.37-28.29 42.43-21.21 54.8 10.61 106.07-24.75 128.37-88.53 152.05-21.22 222.76-35.35 25.6-5.12 68.95-15.92 84.86-12.39 17.35 3.87 91.94 33.6 91.94 90.17 0 70.72-55.69 91.05-55.69 91.05" fill="#fff"/>
 <path transform="matrix(.13333 0 0 -.13333 0 502.67)" d="m2731.6 1702.5c22.59 10.77 39.93 15.02 59.22 15.02 70.72 0 91.93-21.21 102.54-106.07s-79.55-226.29-116.68-258.11c-78.56-67.34-172.84-20.53-325.3-40.66-46.85-6.19-96.76 67.18-158.22 67.18-79.56 0-131.72 43.31-183.87 41.54-35.35-1.2-106.96-1.77-119.34-55.69 1.33 37.57 95.47 73.28 95.47 163.53 0 40.67-33.59 32.71-33.59 43.32 0 24.75 21.21 49.5 95.46 49.5 76.76 0 91.94-7.07 134.37-28.29 42.43-21.21 54.8 10.61 106.07-24.75 128.37-88.53 152.05-21.22 222.76-35.35 25.6-5.12 68.95-15.92 84.86-12.39 17.35 3.87 91.94 33.6 91.94 90.17 0 70.72-55.69 91.05-55.69 91.05z" fill="none" stroke="#c4820e" stroke-miterlimit="22.926" stroke-width="15.275"/>
 <path transform="matrix(.13333 0 0 -.13333 0 502.67)" d="m2817.4 1715.7s-69.39 29.17-111.38 37.13c-44.39 8.41-113.15-35.37-180.32-35.37-25.54 0-56.58 8.85-74.26 18.57 24.75-44.19-24.76-75.13-24.76-89.27 0-15.91 22.99-45.98 127.3-45.98 93.7 0 129.06 129.07 263.42 114.92z" fill="#fff"/>
 <path transform="matrix(.13333 0 0 -.13333 0 502.67)" d="m2817.4 1715.7s-69.39 29.17-111.38 37.13c-44.39 8.41-113.15-35.37-180.32-35.37-25.54 0-56.58 8.85-74.26 18.57 24.75-44.19-24.76-75.13-24.76-89.27 0-15.91 22.99-45.98 127.3-45.98 93.7 0 129.06 129.07 263.42 114.92z" fill="none" stroke="#c4820e" stroke-miterlimit="22.926" stroke-width="15.275"/>
 <path transform="matrix(.13333 0 0 -.13333 0 502.67)" d="m2611 2014.7c-3.54-55.02 10.17-72.7 10.17-72.7 43.63-7.76 10.61-33.59 63.65-33.59 22.98 0 66.4 20.84 63.64 53.03-1.76 20.61-24.21 7.9-31.82 42.44-5.25 23.77 0.55 29.91 8.3 52.91 0.75 2.23 8.8 9.76 6.28 10.73-19.45 7.51-32.26 6.87-32.26 37.12 0 44.2 61.88 40.67 61.88 1.77 0-35.36-21.66-38.01-28.74-38.89-7.82-0.97 15.48-4.86 15.48-22.54 0-9.38-5.31-15.93-5.31-23.43 0-17.67 38.01 10.61 38.01-54.8 0-28.51 14.15-21.22 33.6-3.54 16.88 15.36 52.46 14.7 61.51 35.13 1.37 3.09 7.16 19.16 3.02 19.68-10.61 1.32-29.18 0-29.18 37.12 0 37.13 56.58 37.13 58.35 0 1.7-35.71-15.19-32.34-24.76-37.12-8.84-4.42 19.45-3.54 19.45-42.43 0-5.31-12.38-26.52-53.04-42.43s-72.49-107.84-129.06-107.84c-25.79 0-46.16 28.44-111.38 33.59-13.11 5.42-21.42 10.66-26.51 16.79-5.31 22.1-8.83 36.7-65.42 38.01-34.11 0.79-79.35-48.22-77.79-102.54 1.27-44.2 8.85-84.86 97.24-93.71-104.31-1.76-166.18 78.58-166.18 120.23 0 67.18 60.11 67.18 60.11 113.15 0 45.96 33.59 76.46 49.5 76.46 20.96 0 14.14-14.59 99-11.05 17.75 0.73 32.26 10.82 32.26-1.55z" fill="#fff" fill-rule="evenodd"/>
 <path transform="matrix(.13333 0 0 -.13333 0 502.67)" d="m2611 2014.7c-3.54-55.02 10.17-72.7 10.17-72.7 43.63-7.76 10.61-33.59 63.65-33.59 22.98 0 66.4 20.84 63.64 53.03-1.76 20.61-24.21 7.9-31.82 42.44-5.25 23.77 0.55 29.91 8.3 52.91 0.75 2.23 8.8 9.76 6.28 10.73-19.45 7.51-32.26 6.87-32.26 37.12 0 44.2 61.88 40.67 61.88 1.77 0-35.36-21.66-38.01-28.74-38.89-7.82-0.97 15.48-4.86 15.48-22.54 0-9.38-5.31-15.93-5.31-23.43 0-17.67 38.01 10.61 38.01-54.8 0-28.51 14.15-21.22 33.6-3.54 16.88 15.36 52.46 14.7 61.51 35.13 1.37 3.09 7.16 19.16 3.02 19.68-10.61 1.32-29.18 0-29.18 37.12 0 37.13 56.58 37.13 58.35 0 1.7-35.71-15.19-32.34-24.76-37.12-8.84-4.42 19.45-3.54 19.45-42.43 0-5.31-12.38-26.52-53.04-42.43s-72.49-107.84-129.06-107.84c-25.79 0-46.16 28.44-111.38 33.59-13.11 5.42-21.42 10.66-26.51 16.79-5.31 22.1-8.83 36.7-65.42 38.01-34.11 0.79-79.35-48.22-77.79-102.54 1.27-44.2 8.85-84.86 97.24-93.71-104.31-1.76-166.18 78.58-166.18 120.23 0 67.18 60.11 67.18 60.11 113.15 0 45.96 33.59 76.46 49.5 76.46 20.96 0 14.14-14.59 99-11.05 17.75 0.73 32.26 10.82 32.26-1.55z" fill="none" stroke="#c4820e" stroke-miterlimit="22.926" stroke-width="15.275"/>
 <path transform="matrix(.13333 0 0 -.13333 0 502.67)" d="m2607 2018c0-14.15-35.36-35.36-60.11-35.36s-32.71-39.78 35.36-38.89c15.91 0.2 27.63 0.11 36.34-1.44m-87.61 18.23c16.79-41.1 49.05-42.43 49.5-78.67" fill="none" stroke="#c4820e" stroke-linecap="round" stroke-miterlimit="22.926" stroke-width="15.275"/>
 <path transform="matrix(.13333 0 0 -.13333 0 502.67)" d="m1891.5 2769.1 136.35-98.87-54.37 164.76 146.08 105.04-177.67-0.21-50.39 164.62-53.04-164.62-175.02 0.21 146.09-105.04-54.38-164.76 136.35 98.87" fill="#fff"/>
 <g fill="#c4820e">
  <path transform="matrix(.13333 0 0 -.13333 0 502.67)" d="m1878.2 2867.3-210.38 72.48h167.07l43.31-72.48"/>
  <path transform="matrix(.13333 0 0 -.13333 0 502.67)" d="m1890.6 3100.7v-228.95l49.94 69.39-49.94 159.55z"/>
  <path transform="matrix(.13333 0 0 -.13333 0 502.67)" d="m1883.5 2858.5-126.76-186.64 53.83 161 72.93 25.64z"/>
  <path transform="matrix(.13333 0 0 -.13333 0 502.67)" d="m1891.9 2856.7 133.48-184.3-133.48 100.32z"/>
  <path transform="matrix(.13333 0 0 -.13333 0 502.67)" d="m2116 2940.3-220.11-77.35 74.26-26.07 145.85 103.42z"/>
 </g>
 <path transform="matrix(.13333 0 0 -.13333 0 502.67)" d="m1891.4 2769.3 136.34-98.88-54.37 164.76 146.08 105.05-177.67-0.21-50.38 164.62-53.04-164.62-175.03 0.21 146.09-105.05-54.38-164.76 136.36 98.88z" fill="none" stroke="#fff" stroke-linecap="round" stroke-linejoin="round" stroke-miterlimit="22.926" stroke-width="20.366"/>
 <g>
  <path transform="matrix(.13333 0 0 -.13333 0 502.67)" d="m2055.2 1064.8c8.33 3.73 21.57 20.46 37.32 29.55 18.81 10.84 37.79 13.97 50.86-2.85 10.71-13.79 9.3-23.01 6.95-30.02 3.2 0.21 17.3 1.17 25.76-12.85 15.46-25.63 8.01-33.65-3.13-45.77-15.02-16.357-37.61-18.564-52.27-35.009-9.03 20.422-16.59 38.059-25.51 51.449-14.04 21.05-29.56 41.21-39.98 45.5z" fill="#c4820e"/>
  <path transform="matrix(.13333 0 0 -.13333 0 502.67)" d="m2087.7 1065.4c7.31-11.22 6.16-8.9 15.91-22.55 22.54 14.59 35.14 19.26 23.87 35.36-9.28 13.26-24.31 0.44-39.78-12.82z" fill="#fff"/>
  <path transform="matrix(.13333 0 0 -.13333 0 502.67)" d="m2114.7 1026c8.84-15.47 12.01-23.77 15.91-29.614 18.56 10.604 43.1 21.454 28.29 40.214-13.26 16.8-29.18 0.89-44.2-10.6z" fill="#fff"/>
 </g>
 <g fill="#c4820e">
  <path transform="matrix(.13333 0 0 -.13333 0 502.67)" d="m2403.4 1509.4c-7.23-9.25-37.78-108.09-34.35-115.17-11.99 5.59-8.45 8.24-26.13 11.11 17.68 10.61 37.6 110.23 38.89 115.8 12.12-12.12 21.59-11.74 21.59-11.74z"/>
  <path transform="matrix(.13333 0 0 -.13333 0 502.67)" d="m2293.3 1554.8c-17.16-27.43-24-93.95-29.3-108.09 23.87 1.13 51.6-8.3 59.23-7.71 0.85-1.71-4.68-9.47-7.71-22.6-6.44 12.88-54.17 4.93-81.83 15.16 17.58 14.57 34.28 125.45 31.19 131.2 12.27-4.98 19.04-5.91 28.42-7.96"/>
  <path transform="matrix(.13333 0 0 -.13333 0 502.67)" d="m1891.9 1011.2c-4.81-20.964-8.84-30.94-26.14-34.96 4.95-30.195 8.32-42.211 14.41-57.676-13.8 3.578-10.18 2.801-25.83 4.227 2.55 3.234 2.47 11.289 1.26 15.617-5.34 19.066-6.46 20.777-9.23 39.75-7.64 1.98-15.5 3.543-27.35 8.254-9.14-15.981-18.24-38.606-17.74-48.922 0 0-10.98-2.937-26.54 7.348 12.52 3.98 31.09 71.152 44.25 104.14 1.83 4.59 2.72 11.08-0.59 14.62 45.89-9.13 81.85-15.98 73.5-52.4zm-65.45-6.13c14.41-4.79 38.97-19.545 46.01 6.12 6.41 23.42-17.87 22.75-36.57 27.69-3.88-12.73-7.32-21.87-9.45-33.81z" fill-rule="evenodd"/>
  <g>
   <path transform="matrix(.13333 0 0 -.13333 0 502.67)" d="m1284.1 1561.9c-7.07-15.91-26.85-91.88-26.07-95.9 18.12 0.44 51.6-19.75 55.69-17.24-2.75-9.25-4.43-11.65-4.86-23.2-26.67 9.71-41.55 21.88-76.46 20.55 1.77 4.65 28.94 108.73 27.4 113.15 10.16 3.09 18.57 3.53 24.31 2.65z"/>
   <path transform="matrix(.13333 0 0 -.13333 0 502.67)" d="m1327 1417.8c22.26-5.77 52.15-24.74 69.83-40.21 0 0 7.96 13.67 10.61 23.87-16.35 0.66-32.75 17.1-56.57 26.07 5.74 13.26 7.96 16.36 13.26 26.52 19.44-5.96 18.12-6.19 29.17-12.81 2.77 7.59 3.54 10.6 8.39 18.99-6.18 0.46-7.5 1.78-29.17 11.94 3.54 7.95 9.29 16.35 12.82 27.41 15.5-2.85 38.67-15.25 46.85-22.99 0 0 1.77 7.96 5.31 22.1-21.66 14.15-41.55 22.53-60.11 25.64 0.96-3.53-42.87-88.27-50.39-106.53z"/>
   <path transform="matrix(.13333 0 0 -.13333 0 502.67)" d="m1485.7 1462.5c-8.57-5.15-8.84-4.42-21.22-6.19 11.8-10.72 14.59-12.82 23.87-24.31-14.81-15.68-66.73-64.96-76.02-66.29 15.18-11.81 13.7-10.61 21.22-19.46-0.44 6.64 43.75 49.51 68.51 71.17 10.28-12.87 15.96-13.43 26.07-27.85 0 0 2.35 11.6 6.63 22.1-28.29 25.72-25.05 23.39-49.06 50.83z"/>
   <path transform="matrix(.13333 0 0 -.13333 0 502.67)" d="m1599.9 1289.9c-10.39-0.43-15.91 1.33-27.12 1.1 6-15 11.43-21.87 18.5-36.24-33.87-13.93-89.72-39.33-97.38-37.5 8.36-11.35 5.23-21.05 15.17-28.35 4.64 13.48 70.09 36.75 92.37 45.96 4.72-9.64 19.9-27.3 19.9-31.37 8.57 3.42 10.63 13.38 18.78 17.45-16.29 11.8-38.71 50.95-40.23 68.95z"/>
   <path transform="matrix(.13333 0 0 -.13333 0 502.67)" d="m1660.5 1204.8c7.29-12.43 16.37-11.39 25.37-20.39-20.58-8.15-36.09-19.48-49.81-33.2 7.72-7.71 10.37-17.09 21.53-28.23 15.64 7.71 42.64 35.45 42.42 38.45 8.57-12.87 4.65-19.21 13.65-27.79-11.15 1.28-98.6-74.17-98.6-84.03-7.72 10.29-18.03 25.19-18.03 25.19 16.29 9 27.5 16.49 45.08 35.36-5.14 6.86-12.48 15.76-22.77 30.33-9.43-3.42-44.58-24.22-44.58-36.86-10.29 8.14-12.64 12.71-25.91 19.79 30.87 15.44 108.43 66.37 111.65 81.38z"/>
   <path transform="matrix(.13333 0 0 -.13333 0 502.67)" d="m1732.1 1116.8c0.44-3.86-62.64-88.06-80.44-105.86 17.68-7.95 68.91-32.988 81.77-49.277 8.58 7.715 18.97 22.789 18.97 22.789-3.65-1.066-50.59 21.438-65.17 34.298 8.57 12.01 11.85 15.33 22.99 27.34 12.87-10.29 22.34-9.72 30.07-23.43 1.7 2.57 10.26 10.43 13.69 19-15.43 8.57-22.54 12.38-32.26 22.1 2.57 6.01 9.88 16.72 17.81 23.59 23.59-15.65 32.57-17.84 48.04-35.53 4.29 10.29 2.65 10.61 8.84 24.32-29.17 12.37-34.47 16.34-64.31 40.66z"/>
   <path transform="matrix(.13333 0 0 -.13333 0 502.67)" d="m1913.3 1036.4 83.76 6.63 6.63-23.64c-5.74 3.97-38.45 2.2-64.08-1.11l1.32-28.288c14.28-1.812 30.5 1.547 36.24 3.535l2.65-20.769c-10.16 2.871-20.55-2.215-38.45-2.215l-0.44-36.242c16.5 0 56.13-0.883 65.41 12.375l-3.98-28.285s-40.66-12.375-87.07-1.985c7.04 4.219 6.76 51.594 5.96 61.657-1.81 23.127 2.21 39.117-7.95 58.337z"/>
   <path transform="matrix(.13333 0 0 -.13333 0 502.67)" d="m2177.4 1167.7c9.73-2.64 13.95-5.28 21.03-5.71-7.96-20.34-7.74-24.76-20.12-37.13 7.68-5.38 14.59-14.36 19.01-18.78 10.17 9.72 13.05 18.56 14.81 24.75 6.19-5.75 9.5-10.61 15.69-11.94-3.98-14.14-6.63-18.56-16.8-27.4 7.96-10.61 9.07-11.05 16.36-18.57 18.56 8.41 26.3 38.23 26.3 38.23s10.35-17.25 13-20.35c-7.51-24.75-27.4-35.35-44.19-46.85-19.45 28.29-63.29 78.75-76.91 77.79 22.98 19.45 26.07 21.66 31.82 45.96z"/>
   <path transform="matrix(.13333 0 0 -.13333 0 502.67)" d="m2476.7 1487.8c-25.57 5.29-62.69-10.52-68.66-57.07-4.51-35.15 18.83-68.92 43.48-73.57 41.33-7.78 49.47 29.97 51.87 55.13 0.42 4.37 4.99 5.69 5.02 9.64-4.77 0.07-33.71 9.1-43.6 10.42-0.94-8.44-0.48-8.83-4.67-18.4 12.64-0.99 16.77-3.15 23.61-6.73 0.11-3.62-1.23-36.82-26.12-29.8-21.06 5.95-31.66 20.57-28.6 52.64 2.54 26.76 22.03 44.61 43.31 40.62 14.77-2.78 22.87-9.01 22.87-18.29 10.44 5.1 17.94 10.97 17.94 10.97-10.59 15.81-12.95 19.56-36.45 24.44z"/>
   <path transform="matrix(.13333 0 0 -.13333 0 502.67)" d="m2558.6 1482.4c-1.55-16.81 0.51-37.04 2.65-48.17 17.18 6.05 29.08 8.51 47.26 4.48 0 0-4.19 49.02-8.58 50.54 5.14 3 26.07-3.54 26.07-3.54-1.99-3.31-3.09-7.73-2.9-10.38 2.22-31.36 9.56-108.42 16.61-109.84-2.58-1.28-12.76 1.84-23.87-2.2 2.14 2.99-5.12 43.67-6.19 55.69-16.17 8.85-36.49-0.48-47.42-2.81 0-7.08 0.13-50.68 6.98-51.56-13.5-5.36-14.92-2.24-29.28-3.32 0 2.58 3.91 6.79 4.29 11.16 0.9 10.28-6.35 100.91-12.14 103.75 0 0 21 2.23 26.52 6.2z"/>
   <path transform="matrix(.13333 0 0 -.13333 0 502.67)" d="m2652.2 1480c27.8 0.66 41.74-1.1 63.64 12.82 7.74-10.83 8.84-13.05 15.69-20.12-9.64 0.64-26.3-5.3-34.91-8.39 11.13-47.45 23.42-88.62 27.18-90.38-10.72-3.22-14.91-4.12-25.19-8.41-1.11 25.42-17.24 75.59-21.66 95.92-15.91-2.21-21.44-3.1-32.93-8.62-0.65 1.92 5.11 22.77 8.18 27.18"/>
  </g>
 </g>
</svg>
